<svg width="36" height="36" viewBox="0 0 36 36" fill="none" xmlns="http://www.w3.org/2000/svg">
    <path
        d="M17.1396 17.0185L25.932 5.78436C26.0353 5.65005 26.1972 5.57428 26.366 5.57428H29.0281C29.2589 5.57428 29.3863 5.83946 29.2451 6.01855L20.1048 17.697L29.2451 29.3754C29.2769 29.416 29.2966 29.4648 29.302 29.5161C29.3074 29.5674 29.2983 29.6191 29.2757 29.6655C29.253 29.7118 29.2178 29.7509 29.174 29.7781C29.1303 29.8054 29.0797 29.8198 29.0281 29.8197H26.366C26.1972 29.8197 26.0353 29.7405 25.932 29.6096L17.1396 18.3789C16.8262 17.976 16.8262 17.418 17.1396 17.0185ZM6.66998 17.0185L15.4624 5.78436C15.5657 5.65005 15.7276 5.57428 15.8963 5.57428H18.5585C18.7893 5.57428 18.9167 5.83946 18.7755 6.01855L9.63523 17.697L18.7755 29.3754C18.8073 29.416 18.827 29.4648 18.8324 29.5161C18.8378 29.5674 18.8287 29.6191 18.8061 29.6655C18.7834 29.7118 18.7482 29.7509 18.7044 29.7781C18.6606 29.8054 18.6101 29.8198 18.5585 29.8197H15.8963C15.7276 29.8197 15.5657 29.7405 15.4624 29.6096L6.66998 18.3789C6.35658 17.976 6.35658 17.418 6.66998 17.0185Z"
        fill="#A33D14" />
</svg>
    