<svg width="518" height="512" viewBox="0 0 518 512" fill="none" xmlns="http://www.w3.org/2000/svg">
    <mask id="mask0_1_7319" style="mask-type:alpha" maskUnits="userSpaceOnUse" x="52" y="182"
        width="421" height="151">
        <path
            d="M398.641 315.019C362.516 277.34 274.209 285.072 204.573 282.467C135.213 279.52 125.677 345.842 78.8864 330.058C52.9571 321.53 51.5673 300.627 55.282 283.851C58.4734 270.042 65.344 258.643 65.344 258.643C63.337 255.325 61.8972 252.465 60.1738 249.377C30.1846 186.706 97.8415 166.237 121.227 195.313C142.896 221.872 226.354 207.959 299.392 213.315C379.455 219.263 376.719 180.883 432.322 183.446C475.57 185.63 464.557 224.197 457.475 241.078C456.116 244.5 454.742 246.78 454.196 248.035C453.92 248.376 453.927 248.947 453.927 248.947C461.301 254.908 465.874 261.431 468.761 267.72C486.105 307.171 429.647 347.43 398.641 315.019Z"
            fill="#FFFFDB" />
    </mask>
    <g mask="url(#mask0_1_7319)">
        <rect x="47.4873" y="178.675" width="429.354" height="152.481" fill="#FEC1A8"
            fill-opacity="0.74" />
    </g>
</svg>
    