<svg width="33" height="33" viewBox="0 0 33 33" fill="none" xmlns="http://www.w3.org/2000/svg">
    <path
        d="M13.7445 19.393C16.421 15.6248 14.6249 11.6012 13.3923 10.0605L15.7695 10.4127V9.2681C16.2977 8.28202 16.8865 8.85723 17.1148 9.2681V11.029C22.8045 14.6211 20.3682 18.1017 18.4389 19.393H17.1148V21.0659H18.7226C19.3468 21.0659 20.3596 20.1267 20.7879 19.6572L24.8819 18.6007V19.6572C24.1424 19.5867 23.3999 20.3909 23.1211 20.8017C21.6772 23.4782 20.5238 24.0593 20.1276 24.0153H11.8516C8.50592 23.1349 7.96299 20.567 8.10972 19.393H12.1597C12.0188 21.3652 14.5075 21.33 15.7695 21.0659V19.393H13.7445Z"
        fill="white" />
    <path
        d="M12.7446 17.6328C14.6116 16.0719 13.5225 13.0547 12.7446 11.7412L9.03369 17.6328H12.7446Z"
        fill="white" />
    <circle cx="16.4848" cy="16.3701" r="15.2031" stroke="white" />
</svg>
    