<svg width="32" height="33" viewBox="0 0 32 33" fill="none" xmlns="http://www.w3.org/2000/svg">
    <circle cx="15.7031" cy="16.3701" r="15.2031" stroke="white" />
    <g clip-path="url(#clip0_994_17)">
        <path
            d="M24.529 12.7438C24.5191 12.0004 24.3799 11.2645 24.1178 10.5689C23.8904 9.98212 23.5432 9.44925 23.0982 9.00429C22.6533 8.55934 22.1204 8.21209 21.5336 7.98474C20.847 7.72697 20.1215 7.58759 19.3882 7.57253C18.4441 7.53033 18.1447 7.51855 15.748 7.51855C13.3514 7.51855 13.0442 7.51855 12.1069 7.57253C11.3739 7.5877 10.6488 7.72708 9.96243 7.98474C9.37559 8.21193 8.84263 8.55912 8.39765 9.0041C7.95268 9.44907 7.60549 9.98203 7.37829 10.5689C7.12001 11.255 6.98093 11.9803 6.96707 12.7133C6.92487 13.6585 6.91211 13.9578 6.91211 16.3545C6.91211 18.7512 6.91211 19.0574 6.96707 19.9956C6.98179 20.7298 7.12018 21.4541 7.37829 22.142C7.60587 22.7287 7.95332 23.2615 8.39844 23.7062C8.84356 24.151 9.37657 24.4981 9.96341 24.7252C10.6479 24.9933 11.3731 25.1427 12.1079 25.1668C13.053 25.2091 13.3523 25.2218 15.749 25.2218C18.1457 25.2218 18.4529 25.2218 19.3902 25.1668C20.1235 25.1524 20.8489 25.0134 21.5356 24.7556C22.1222 24.528 22.6549 24.1807 23.0999 23.7358C23.5448 23.2908 23.8921 22.7581 24.1197 22.1715C24.3779 21.4845 24.5162 20.7602 24.531 20.0251C24.5732 19.0809 24.5859 18.7816 24.5859 16.3839C24.584 13.9872 24.584 13.683 24.529 12.7438ZM15.7421 20.8868C13.2355 20.8868 11.2049 18.8562 11.2049 16.3496C11.2049 13.843 13.2355 11.8124 15.7421 11.8124C16.9455 11.8124 18.0995 12.2904 18.9504 13.1413C19.8013 13.9922 20.2794 15.1462 20.2794 16.3496C20.2794 17.5529 19.8013 18.707 18.9504 19.5579C18.0995 20.4088 16.9455 20.8868 15.7421 20.8868ZM20.4599 12.7025C20.321 12.7027 20.1833 12.6754 20.0549 12.6223C19.9265 12.5691 19.8098 12.4912 19.7115 12.3929C19.6133 12.2947 19.5353 12.178 19.4822 12.0496C19.4291 11.9211 19.4018 11.7835 19.4019 11.6445C19.4019 11.5057 19.4293 11.3682 19.4824 11.2398C19.5356 11.1115 19.6135 10.995 19.7117 10.8968C19.8099 10.7986 19.9265 10.7207 20.0548 10.6675C20.1831 10.6144 20.3206 10.587 20.4594 10.587C20.5983 10.587 20.7358 10.6144 20.8641 10.6675C20.9924 10.7207 21.109 10.7986 21.2072 10.8968C21.3054 10.995 21.3833 11.1115 21.4365 11.2398C21.4896 11.3682 21.517 11.5057 21.517 11.6445C21.517 12.2295 21.0439 12.7025 20.4599 12.7025Z"
            fill="white" />
        <path
            d="M15.7422 19.2969C17.3699 19.2969 18.6895 17.9773 18.6895 16.3496C18.6895 14.7219 17.3699 13.4023 15.7422 13.4023C14.1145 13.4023 12.7949 14.7219 12.7949 16.3496C12.7949 17.9773 14.1145 19.2969 15.7422 19.2969Z"
            fill="white" />
    </g>
    <defs>
        <clipPath id="clip0_994_17">
            <rect width="17.9464" height="19.068" fill="white"
                transform="translate(6.73047 6.83594)" />
        </clipPath>
    </defs>
</svg>
    