<svg width="32" height="33" viewBox="0 0 32 33" fill="none" xmlns="http://www.w3.org/2000/svg">
    <circle cx="15.8911" cy="16.3701" r="15.2031" stroke="white" />
    <g clip-path="url(#clip0_1_11939)">
        <path
            d="M25.142 10.7581C24.4786 11.0521 23.7659 11.2507 23.0167 11.3405C23.7898 10.8779 24.3681 10.1499 24.6438 9.29227C23.9175 9.72368 23.1226 10.0273 22.2937 10.1901C21.7363 9.59487 20.9979 9.20037 20.1933 9.06781C19.3887 8.93524 18.5628 9.07203 17.8439 9.45694C17.125 9.84184 16.5533 10.4533 16.2175 11.1965C15.8817 11.9396 15.8007 12.7728 15.987 13.5667C14.5153 13.4928 13.0756 13.1103 11.7613 12.444C10.4471 11.7777 9.2876 10.8425 8.35816 9.69906C8.04036 10.2473 7.85762 10.8829 7.85762 11.5598C7.85727 12.1692 8.00733 12.7692 8.2945 13.3067C8.58167 13.8441 8.99706 14.3024 9.50383 14.6409C8.91612 14.6222 8.34137 14.4634 7.82743 14.1777V14.2253C7.82737 15.08 8.12301 15.9084 8.66419 16.5699C9.20536 17.2314 9.95874 17.6853 10.7965 17.8546C10.2513 18.0022 9.67968 18.0239 9.12485 17.9182C9.36121 18.6536 9.82162 19.2967 10.4416 19.7574C11.0616 20.2181 11.8102 20.4734 12.5825 20.4876C11.2715 21.5168 9.65231 22.0751 7.98554 22.0726C7.69028 22.0727 7.39528 22.0555 7.10205 22.021C8.79392 23.1088 10.7634 23.6861 12.7748 23.6839C19.5837 23.6839 23.3059 18.0445 23.3059 13.1535C23.3059 12.9946 23.3019 12.8342 23.2948 12.6753C24.0188 12.1517 24.6438 11.5033 25.1404 10.7605L25.142 10.7581Z"
            fill="white" />
    </g>
    <defs>
        <clipPath id="clip0_1_11939">
            <rect width="19.068" height="19.068" fill="white" transform="translate(6.35693 6.83594)" />
        </clipPath>
    </defs>
</svg>
    