<svg width="32" height="33" viewBox="0 0 32 33" fill="none" xmlns="http://www.w3.org/2000/svg">
    <circle cx="16.2973" cy="16.3701" r="15.2031" stroke="white" />
    <path
        d="M23.3666 9.98968C22.0661 9.40319 20.6721 8.9697 19.2144 8.72321C19.2014 8.72072 19.188 8.72232 19.176 8.72781C19.1639 8.73329 19.1539 8.74238 19.1473 8.75381C18.9688 9.06745 18.7699 9.47629 18.6305 9.79928C17.0845 9.56829 15.5127 9.56829 13.9667 9.79928C13.8114 9.44132 13.6363 9.09229 13.4422 8.75381C13.4356 8.74224 13.4257 8.73294 13.4137 8.72717C13.4017 8.7214 13.3882 8.71943 13.3751 8.72151C11.9182 8.968 10.5243 9.40149 9.22294 9.98883C9.21175 9.99352 9.20226 10.0015 9.19574 10.0118C6.55061 13.9004 5.82558 17.693 6.18172 21.438C6.18272 21.4472 6.18556 21.4561 6.19009 21.4641C6.19462 21.4721 6.20074 21.4792 6.20807 21.4848C7.75197 22.6088 9.47397 23.4651 11.302 24.0177C11.3147 24.0216 11.3284 24.0216 11.3411 24.0177C11.3538 24.0137 11.3651 24.006 11.3734 23.9956C11.7661 23.4686 12.1163 22.9119 12.4155 22.3271C12.4333 22.2931 12.4163 22.2523 12.3806 22.2387C11.8315 22.0319 11.2995 21.7824 10.7894 21.4924C10.7803 21.4872 10.7726 21.4798 10.767 21.4708C10.7614 21.4619 10.7581 21.4517 10.7574 21.4411C10.7568 21.4306 10.7587 21.4201 10.7631 21.4105C10.7675 21.4009 10.7742 21.3925 10.7826 21.3862C10.8897 21.3071 10.9968 21.2247 11.0988 21.1422C11.108 21.1348 11.1191 21.1301 11.1308 21.1286C11.1425 21.1271 11.1544 21.1289 11.1651 21.1337C14.503 22.6331 18.118 22.6331 21.4167 21.1337C21.4275 21.1286 21.4395 21.1266 21.4514 21.1279C21.4633 21.1293 21.4745 21.1339 21.4839 21.1414C21.5859 21.2247 21.6921 21.3071 21.8001 21.3862C21.8086 21.3924 21.8154 21.4006 21.8199 21.4101C21.8245 21.4196 21.8266 21.4301 21.8261 21.4407C21.8256 21.4512 21.8225 21.4614 21.817 21.4705C21.8116 21.4795 21.804 21.487 21.795 21.4924C21.2867 21.7848 20.758 22.0321 20.2029 22.2378C20.1944 22.2409 20.1867 22.2458 20.1802 22.2521C20.1737 22.2585 20.1686 22.2661 20.1653 22.2746C20.162 22.283 20.1606 22.2921 20.161 22.3011C20.1615 22.3102 20.1639 22.319 20.1681 22.3271C20.4741 22.911 20.8243 23.4669 21.2093 23.9947C21.2173 24.0056 21.2285 24.0137 21.2413 24.0179C21.254 24.0222 21.2678 24.0224 21.2807 24.0185C23.1119 23.4675 24.8367 22.6108 26.3823 21.4848C26.3898 21.4795 26.3961 21.4727 26.4008 21.4648C26.4055 21.4568 26.4085 21.448 26.4095 21.4389C26.8345 17.1091 25.6972 13.3471 23.3929 10.0135C23.3873 10.0026 23.3779 9.9942 23.3666 9.98968ZM12.9144 19.1575C11.9097 19.1575 11.081 18.2489 11.081 17.1346C11.081 16.0194 11.8936 15.1116 12.9144 15.1116C13.9429 15.1116 14.7639 16.0271 14.7478 17.1346C14.7478 18.2498 13.9352 19.1575 12.9144 19.1575ZM19.693 19.1575C18.6874 19.1575 17.8596 18.2489 17.8596 17.1346C17.8596 16.0194 18.6713 15.1116 19.693 15.1116C20.7214 15.1116 21.5425 16.0271 21.5264 17.1346C21.5264 18.2498 20.7223 19.1575 19.693 19.1575Z"
        fill="white" />
</svg>
    