<svg width="36" height="36" viewBox="0 0 36 36" fill="none" xmlns="http://www.w3.org/2000/svg">
    <path
        d="M18.9346 17.0185L10.1422 5.7843C10.0389 5.64999 9.87702 5.57422 9.70827 5.57422H7.04609C6.81535 5.57422 6.68792 5.8394 6.82912 6.01849L15.9694 17.6969L6.82912 29.3754C6.79733 29.416 6.77759 29.4647 6.77219 29.516C6.76678 29.5673 6.77592 29.6191 6.79855 29.6654C6.82118 29.7118 6.8564 29.7508 6.90018 29.7781C6.94395 29.8054 6.99452 29.8198 7.04609 29.8196H9.70827C9.87702 29.8196 10.0389 29.7404 10.1422 29.6096L18.9346 18.3788C19.248 17.9759 19.248 17.418 18.9346 17.0185ZM29.4042 17.0185L20.6118 5.7843C20.5085 5.64999 20.3466 5.57422 20.1779 5.57422H17.5157C17.285 5.57422 17.1575 5.8394 17.2987 6.01849L26.439 17.6969L17.2987 29.3754C17.2669 29.416 17.2472 29.4647 17.2418 29.516C17.2364 29.5673 17.2455 29.6191 17.2682 29.6654C17.2908 29.7118 17.326 29.7508 17.3698 29.7781C17.4136 29.8054 17.4641 29.8198 17.5157 29.8196H20.1779C20.3466 29.8196 20.5085 29.7404 20.6118 29.6096L29.4042 18.3788C29.7176 17.9759 29.7176 17.418 29.4042 17.0185Z"
        fill="#A33D14" />
</svg>
    