<svg width="223" height="223" viewBox="0 0 223 223" fill="none" xmlns="http://www.w3.org/2000/svg">
    <g filter="url(#filter0_f_1_7001)">
        <circle cx="111.3" cy="111.616" r="47.095" fill="#FFF85F" />
    </g>
    <path
        d="M69.4857 190.89C71.2281 190.531 72.9709 190.436 74.7134 190.397C76.4558 190.347 78.1986 190.374 79.941 190.401C81.6835 190.423 83.4263 190.428 85.1687 190.424H90.3964H111.307H132.217H142.672L145.286 190.423C146.158 190.424 147.029 190.392 147.9 190.377C149.642 190.368 151.385 190.389 153.128 190.89C153.256 190.927 153.331 191.061 153.294 191.19C153.27 191.273 153.205 191.333 153.128 191.356C151.385 191.856 149.642 191.877 147.9 191.868C147.029 191.854 146.158 191.821 145.286 191.822L142.672 191.821H132.217H111.307H90.396H85.1687C83.4263 191.818 81.6839 191.823 79.941 191.844C78.1986 191.871 76.4558 191.898 74.7134 191.848C72.9709 191.81 71.2281 191.714 69.4857 191.355C69.3571 191.329 69.2741 191.203 69.3009 191.074C69.3206 190.979 69.3956 190.909 69.4857 190.89Z"
        fill="#1E1B24" />
    <path
        d="M85.7927 142.964C85.7927 142.964 80.3019 139.866 81.3484 133.933C82.2337 128.913 86.6545 127.552 89.084 127.183C89.8733 127.063 90.5666 127.713 90.4988 128.509C90.2306 131.657 90.3949 139.104 97.1882 142.965H85.7927V142.964Z"
        fill="#F99B28" />
    <g opacity="0.4">
        <g opacity="0.4">
            <g opacity="0.4">
                <path opacity="0.4"
                    d="M97.1886 142.964H94.1151C89.138 138.917 89.0291 132.601 89.2704 129.767C89.3391 128.971 88.6453 128.322 87.856 128.441C86.4768 128.651 84.4541 129.18 82.8018 130.518C84.553 128.229 87.3348 127.448 89.0844 127.183C89.8737 127.064 90.5674 127.714 90.4987 128.508C90.2306 131.657 90.3948 139.104 97.1886 142.964Z"
                    fill="white" />
            </g>
        </g>
    </g>
    <path
        d="M97.188 142.964H85.7925C85.7925 142.964 80.3026 139.867 81.3483 133.933C81.7354 131.736 82.7995 130.241 84.0765 129.222C83.5637 130.501 83.3693 132.019 83.7698 133.795C85.097 139.672 91.3579 140.41 91.3579 140.41L93.2984 139.597C94.257 140.857 95.5239 142.018 97.188 142.964Z"
        fill="white" />
    <path
        d="M99.7241 143.635H85.6167L85.4634 143.548C85.4043 143.515 79.5725 140.144 80.6882 133.817C81.6401 128.418 86.2938 126.928 88.9834 126.52C89.5641 126.432 90.1427 126.612 90.5713 127.013C90.9999 127.414 91.2169 127.98 91.167 128.565C90.9177 131.492 91.0376 138.697 97.5196 142.381L99.7241 143.635ZM85.9787 142.294H95.0029C89.6776 138.033 89.5855 131.334 89.831 128.452C89.8456 128.278 89.7815 128.111 89.6546 127.992C89.5281 127.873 89.3571 127.82 89.1845 127.846C86.851 128.2 82.8152 129.477 82.0087 134.05C81.139 138.979 85.1408 141.769 85.9787 142.294Z"
        fill="#1E1B24" />
    <g opacity="0.3">
        <g opacity="0.3">
            <g opacity="0.3">
                <path opacity="0.3"
                    d="M97.188 142.964H85.7925C85.7925 142.964 80.3026 139.867 81.3483 133.933C81.5695 132.679 82.0102 131.654 82.5867 130.816C82.59 130.896 82.5951 130.977 82.6018 131.059C83.0576 137.066 89.1458 138.707 89.1458 138.707L92.2209 137.921C93.2398 139.816 94.8067 141.611 97.188 142.964Z"
                    fill="#6B184E" />
            </g>
        </g>
        <g opacity="0.3">
            <g opacity="0.3">
                <path opacity="0.3"
                    d="M97.5845 143.069H85.7646L85.7408 143.055C85.685 143.024 80.1984 139.853 81.245 133.915C81.4549 132.725 81.8776 131.662 82.5002 130.757L82.6778 130.498L82.6912 130.812C82.6946 130.891 82.6996 130.97 82.7063 131.05C83.1361 136.719 88.7174 138.473 89.1472 138.599L92.2743 137.8L92.3133 137.872C93.4444 139.976 95.1018 141.659 97.2397 142.873L97.5845 143.069ZM85.8208 142.859H96.8019C94.814 141.657 93.2563 140.039 92.1675 138.043L89.1447 138.815L89.1183 138.808C89.0572 138.791 82.9996 137.092 82.5027 131.135C81.9895 131.957 81.6363 132.903 81.4511 133.951C80.4645 139.55 85.4358 142.63 85.8208 142.859Z"
                    fill="#1E1B24" />
            </g>
        </g>
    </g>
    <path
        d="M131.766 154.696H90.8466C90.8466 154.696 87.3157 156.115 89.6903 142.268C90.6254 136.813 93.3502 133.929 95.0864 129.969C95.3428 129.38 95.5791 128.766 95.7852 128.118C95.7852 128.116 95.7852 128.116 95.7852 128.114C96.184 126.852 96.4656 125.457 96.5611 123.834C96.5829 123.486 96.5946 123.125 96.598 122.755H126.015C126.018 123.08 126.027 123.4 126.045 123.709C126.136 125.438 126.436 126.913 126.866 128.238C127.062 128.843 127.285 129.416 127.528 129.969C129.263 133.931 131.989 136.815 132.923 142.268C135.297 156.115 131.766 154.696 131.766 154.696Z"
        fill="#F99B28" />
    <path
        d="M124.307 134.758C120.791 138.794 121.129 145.676 121.129 145.676H101.523C101.523 145.676 101.861 138.794 98.3445 134.758C96.3993 132.524 95.8032 130.156 95.7852 128.118C95.7852 128.116 95.7852 128.116 95.7852 128.115C96.1848 126.853 96.4655 125.456 96.5619 123.835C96.8158 123.152 97.0349 122.755 97.0349 122.755H125.619C125.619 122.755 125.811 123.104 126.045 123.709C126.135 125.438 126.436 126.913 126.867 128.239C126.826 130.249 126.215 132.569 124.307 134.758Z"
        fill="white" />
    <path
        d="M132.034 155.407C131.755 155.407 131.557 155.333 131.517 155.317L132.017 154.073C132.017 154.073 132.005 154.067 131.985 154.061C132.015 154.069 132.127 154.084 132.276 153.947C132.675 153.58 133.853 151.663 132.262 142.381C131.656 138.844 130.248 136.383 128.887 134.003C127.241 131.125 125.541 128.153 125.359 123.424H97.253C97.0716 128.153 95.3719 131.125 93.7255 134.003C92.3643 136.383 90.9566 138.844 90.3504 142.381C88.7588 151.663 89.9369 153.58 90.3361 153.947C90.4857 154.085 90.5976 154.069 90.6277 154.061C90.6068 154.067 90.5955 154.073 90.5955 154.073L91.0957 155.317C91.0136 155.35 90.2737 155.622 89.5263 155.019C87.9284 153.729 87.7659 149.521 89.0286 142.154C89.675 138.384 91.1422 135.819 92.5612 133.338C94.273 130.345 95.8902 127.518 95.927 122.749L95.9321 122.083H126.679L126.684 122.749C126.721 127.518 128.338 130.345 130.05 133.338C131.469 135.819 132.936 138.385 133.582 142.154C134.846 149.521 134.683 153.729 133.085 155.019C132.705 155.327 132.325 155.407 132.034 155.407Z"
        fill="#1E1B24" />
    <g opacity="0.3">
        <g opacity="0.3">
            <path opacity="0.3"
                d="M127.528 129.969C117.485 136.602 105.126 136.601 95.0864 129.969C95.3428 129.38 95.5791 128.766 95.7852 128.118C95.7852 128.116 95.7852 128.116 95.7852 128.114C95.8774 127.824 95.9629 127.528 96.04 127.223C96.174 126.703 96.288 126.16 96.3751 125.587C105.703 130.744 116.919 130.839 126.272 125.805C126.354 126.298 126.454 126.77 126.571 127.223C126.66 127.571 126.761 127.91 126.866 128.238C127.062 128.843 127.285 129.416 127.528 129.969Z"
                fill="#1E1B24" />
        </g>
    </g>
    <g opacity="0.3">
        <g opacity="0.3">
            <g opacity="0.3">
                <path opacity="0.3"
                    d="M98.3815 139.049C97.9156 139.283 97.6575 139.801 97.557 140.483C97.3039 142.188 97.5603 144.896 95.6717 146.965C92.9904 149.901 85.952 150.617 83.7936 146.865C82.4043 144.45 82.1044 141.325 82.773 139.049H98.3815Z"
                    fill="#6B184E" />
            </g>
        </g>
        <g opacity="0.3">
            <g opacity="0.3">
                <path opacity="0.3"
                    d="M89.2 149.533C88.8603 149.533 88.5226 149.515 88.1899 149.478C86.1157 149.251 84.522 148.342 83.7025 146.917C82.3757 144.611 81.9618 141.437 82.6723 139.019L82.6945 138.944H98.8225L98.4287 139.143C98.0215 139.347 97.7634 139.804 97.6608 140.499C97.608 140.854 97.5774 141.259 97.5447 141.687C97.4199 143.331 97.2644 145.376 95.7491 147.036C94.3623 148.554 91.7276 149.533 89.2 149.533ZM82.8517 139.153C82.1868 141.51 82.5978 144.577 83.884 146.812C84.6695 148.178 86.2066 149.05 88.2126 149.27C90.9579 149.57 94.0624 148.571 95.5941 146.894C97.0604 145.288 97.2129 143.282 97.3352 141.671C97.3683 141.239 97.3993 140.83 97.453 140.468C97.5409 139.871 97.7395 139.431 98.0458 139.153H82.8517Z"
                    fill="#1E1B24" />
            </g>
        </g>
    </g>
    <g opacity="0.3">
        <g opacity="0.3">
            <g opacity="0.3">
                <path opacity="0.3"
                    d="M124.021 139.049C124.486 139.284 124.744 139.802 124.845 140.484C125.098 142.188 124.842 144.896 126.73 146.966C129.412 149.902 136.45 150.617 138.608 146.865C139.998 144.45 140.298 141.325 139.629 139.049H124.021Z"
                    fill="#6B184E" />
            </g>
        </g>
        <g opacity="0.3">
            <g opacity="0.3">
                <path opacity="0.3"
                    d="M133.202 149.533C130.675 149.533 128.04 148.555 126.654 147.037C125.139 145.376 124.983 143.331 124.858 141.688C124.825 141.259 124.795 140.855 124.742 140.499C124.639 139.804 124.381 139.348 123.974 139.143L123.58 138.945H139.708L139.73 139.02C140.441 141.438 140.027 144.612 138.7 146.918C137.881 148.342 136.287 149.252 134.213 149.479C133.88 149.515 133.541 149.533 133.202 149.533ZM124.356 139.154C124.662 139.432 124.861 139.872 124.949 140.468C125.003 140.831 125.034 141.239 125.067 141.671C125.189 143.282 125.341 145.288 126.808 146.895C128.339 148.571 131.443 149.571 134.189 149.27C136.195 149.051 137.732 148.178 138.518 146.813C139.804 144.577 140.215 141.51 139.551 139.154H124.356Z"
                    fill="#1E1B24" />
            </g>
        </g>
    </g>
    <path
        d="M141.154 139.868C143.86 156.781 143.86 174.018 141.154 190.931H81.4585C78.7521 174.018 78.7521 156.781 81.4585 139.868H141.154Z"
        fill="#EA9628" />
    <path
        d="M81.4583 191.035H81.3691L81.3548 190.947C78.6421 173.995 78.6421 156.804 81.3548 139.852L81.3691 139.764H141.243L141.257 139.852C143.97 156.804 143.97 173.995 141.257 190.947L141.243 191.035H81.4583ZM81.5476 190.826H141.064C143.755 173.952 143.755 156.846 141.064 139.973H81.5476C78.8571 156.846 78.8571 173.953 81.5476 190.826Z"
        fill="#1E1B24" />
    <path
        d="M143.184 165.024C143.203 173.687 142.527 182.35 141.154 190.931H81.4595C80.1063 182.474 79.4297 173.936 79.4297 165.399V165.024C79.4402 160.422 79.648 155.818 80.0527 151.228C80.3874 147.43 80.8562 143.641 81.4595 139.868H141.154C141.758 143.641 142.227 147.43 142.561 151.228C142.966 155.818 143.174 160.422 143.184 165.024Z"
        fill="#EA9628" />
    <path
        d="M141.243 191.036H81.3695L81.3553 190.948C80.0075 182.525 79.3242 173.929 79.3242 165.399V165.024C79.3347 160.434 79.5446 155.79 79.9476 151.22C80.2815 147.431 80.7549 143.606 81.3557 139.851L81.37 139.763H141.244L141.258 139.851C141.859 143.607 142.332 147.432 142.666 151.22C143.069 155.791 143.279 160.436 143.289 165.024C143.309 173.679 142.625 182.401 141.258 190.948L141.243 191.036ZM81.548 190.827H141.064C142.42 182.319 143.098 173.639 143.079 165.024C143.068 160.442 142.859 155.804 142.456 151.238C142.125 147.485 141.657 143.696 141.064 139.973H81.548C80.9548 143.694 80.4868 147.483 80.1563 151.238C79.7536 155.802 79.5442 160.441 79.5337 165.024V165.399C79.5337 173.887 80.2111 182.442 81.548 190.827Z"
        fill="#1E1B24" />
    <g opacity="0.3">
        <g opacity="0.3">
            <path opacity="0.3"
                d="M143.184 165.023C143.203 173.686 142.527 182.35 141.154 190.931H81.4595C81.2563 189.658 81.0665 188.382 80.8935 187.105L80.1021 180.126C80.1021 180.126 83.5153 183.764 89.2105 185.214C105.432 189.342 124.243 187.707 130.913 184.858C135.284 182.991 137.908 180.526 138.845 176.666C140.242 170.918 137.626 165.024 131.71 165.024H79.4297C79.4402 160.422 79.648 155.819 80.0527 151.229L81.4566 146.222H141.158L142.562 151.229C142.966 155.818 143.174 160.422 143.184 165.023Z"
                fill="#1E1B24" />
        </g>
    </g>
    <path
        d="M81.4591 191.601C81.1298 191.601 80.8491 191.362 80.7971 191.037C78.0748 174.025 78.0748 156.774 80.7971 139.762C80.8491 139.437 81.1298 139.198 81.4591 139.198H141.154C141.484 139.198 141.764 139.437 141.816 139.762C144.539 156.774 144.539 174.025 141.816 191.036C141.764 191.361 141.484 191.6 141.154 191.6L81.4591 191.601ZM82.0318 190.26H140.582C143.162 173.761 143.162 157.037 140.582 140.538H82.0318C79.451 157.038 79.451 173.761 82.0318 190.26Z"
        fill="#1E1B24" />
    <path
        d="M146.428 158.67H76.1851L80.8723 141.953V141.95L80.8735 141.948L81.4563 139.867H141.157L146.428 158.67Z"
        fill="#EA9628" />
    <path
        d="M146.566 158.775H76.0464L81.3763 139.763H141.236L146.566 158.775ZM76.3229 158.565H146.289L141.077 139.972H81.5351L76.3229 158.565Z"
        fill="#1E1B24" />
    <g opacity="0.4">
        <g opacity="0.4">
            <g opacity="0.4">
                <path opacity="0.4"
                    d="M80.8723 143.628V143.625L80.8735 143.624L81.4563 141.543H141.157L145.958 158.67H146.428L141.157 139.867H81.4563L80.8735 141.948L80.8723 141.95V141.953L76.1851 158.67H76.6547L80.8723 143.628Z"
                    fill="white" />
            </g>
        </g>
    </g>
    <g opacity="0.4">
        <g opacity="0.4">
            <g opacity="0.4">
                <path opacity="0.4"
                    d="M146.428 158.67H76.1851L80.8723 141.953C80.8291 142.248 78.9304 155.064 80.3063 156.026C81.9536 157.177 99.2232 156.992 115.371 156.819C127.935 156.683 140.154 156.79 141.662 156.026C143.965 154.858 141.382 143.338 140.544 139.867H141.157L146.428 158.67Z"
                    fill="white" />
            </g>
        </g>
    </g>
    <path
        d="M146.428 159.339H76.1846C75.9747 159.339 75.7773 159.241 75.6504 159.074C75.5239 158.907 75.4824 158.69 75.539 158.488L80.8106 139.687C80.8919 139.397 81.1554 139.198 81.4562 139.198H112.004C112.006 139.198 112.007 139.198 112.009 139.198H141.156C141.457 139.198 141.721 139.398 141.802 139.687L147.074 158.488C147.13 158.69 147.089 158.907 146.962 159.074C146.836 159.241 146.638 159.339 146.428 159.339ZM77.0685 157.999H145.544L140.648 140.539H112.009C112.007 140.539 112.006 140.539 112.004 140.539H81.9644L77.0685 157.999Z"
        fill="#1E1B24" />
    <path
        d="M97.6155 139.031C96.8761 139.031 96.5049 139.519 96.3863 140.248C96.1714 141.568 96.3893 143.666 94.7864 145.269C92.5123 147.543 86.5422 148.097 84.7114 145.191C83.1734 142.75 83.2074 139.373 84.5895 137.742C87.5511 134.246 92.6208 134.093 96.2422 135.882C97.5556 136.531 100.077 139.031 100.077 139.031H97.6155V139.031Z"
        fill="white" />
    <g opacity="0.3">
        <g opacity="0.3">
            <path opacity="0.3"
                d="M100.077 139.032H97.615C96.876 139.032 96.5056 139.518 96.3866 140.249C96.1721 141.569 96.39 143.666 94.7862 145.269C92.5122 147.544 86.5429 148.097 84.7113 145.191C84.1901 144.365 83.8499 143.429 83.6807 142.493C83.7259 142.57 83.7728 142.645 83.8198 142.721C85.6497 145.626 91.6206 145.073 93.8947 142.799C95.4968 141.196 95.2789 139.099 95.4951 137.779C95.4951 137.77 95.4968 137.764 95.4985 137.757C95.6459 136.894 96.6899 136.532 97.3569 137.098L99.3025 138.746C99.3025 138.746 99.078 138.348 98.7294 137.769C99.4869 138.447 100.077 139.032 100.077 139.032Z"
                fill="#1E1B24" />
        </g>
    </g>
    <path
        d="M89.3291 147.848C88.9772 147.848 88.6265 147.83 88.2796 147.791C86.3906 147.579 84.9221 146.783 84.1446 145.549C82.4872 142.918 82.4574 139.222 84.0784 137.309C87.2875 133.522 92.7762 133.422 96.5392 135.282C97.9343 135.972 100.443 138.45 100.549 138.555L101.706 139.702H97.6155C97.432 139.702 97.1543 139.702 97.0483 140.356C97.0072 140.609 96.9821 140.911 96.9553 141.23C96.8472 142.527 96.6993 144.304 95.2606 145.743C93.961 147.042 91.6291 147.848 89.3291 147.848ZM91.4071 135.436C89.0823 135.436 86.7379 136.244 85.101 138.176C83.8739 139.624 83.9569 142.736 85.2787 144.835C85.8342 145.716 86.9532 146.293 88.4288 146.459C90.5918 146.701 93.1214 145.986 94.3125 144.795C95.4039 143.704 95.5183 142.33 95.6192 141.119C95.6481 140.772 95.6754 140.445 95.7248 140.141C95.9087 139.01 96.5979 138.361 97.6155 138.361H98.3851C97.5556 137.616 96.5614 136.789 95.9452 136.484C94.6007 135.82 93.0087 135.436 91.4071 135.436Z"
        fill="#1E1B24" />
    <path
        d="M124.99 139.031C125.729 139.031 126.1 139.519 126.219 140.248C126.434 141.568 126.216 143.666 127.819 145.269C130.093 147.543 136.063 148.097 137.894 145.191C139.432 142.75 139.398 139.373 138.016 137.742C135.054 134.246 129.984 134.093 126.363 135.882C125.05 136.531 122.528 139.031 122.528 139.031H124.99V139.031Z"
        fill="white" />
    <path
        d="M133.276 147.849C130.976 147.849 128.644 147.042 127.344 145.743C125.905 144.304 125.758 142.527 125.649 141.23C125.623 140.911 125.597 140.608 125.556 140.356C125.45 139.702 125.173 139.702 124.989 139.702H120.899L122.056 138.555C122.162 138.45 124.671 135.972 126.065 135.282C129.829 133.423 135.317 133.522 138.526 137.309C140.147 139.222 140.117 142.918 138.46 145.549C137.683 146.783 136.214 147.579 134.325 147.791C133.979 147.83 133.628 147.849 133.276 147.849ZM124.22 138.361H124.989C126.007 138.361 126.696 139.01 126.88 140.141C126.929 140.445 126.957 140.772 126.985 141.119C127.086 142.33 127.201 143.703 128.292 144.795C129.483 145.985 132.012 146.701 134.176 146.458C135.651 146.293 136.77 145.716 137.326 144.834C138.648 142.736 138.731 139.625 137.504 138.176C134.739 134.913 129.956 134.854 126.66 136.484C126.043 136.789 125.049 137.615 124.22 138.361Z"
        fill="#1E1B24" />
    <g opacity="0.3">
        <g opacity="0.3">
            <path opacity="0.3"
                d="M122.59 139.032H125.052C125.791 139.032 126.161 139.518 126.28 140.249C126.495 141.569 126.277 143.666 127.881 145.269C130.155 147.544 136.124 148.097 137.956 145.191C138.477 144.365 138.817 143.429 138.986 142.493C138.941 142.57 138.894 142.645 138.847 142.721C137.017 145.626 131.046 145.073 128.772 142.799C127.17 141.196 127.388 139.099 127.172 137.779C127.172 137.77 127.17 137.764 127.169 137.757C127.021 136.894 125.977 136.532 125.31 137.098L123.365 138.746C123.365 138.746 123.589 138.348 123.938 137.769C123.18 138.447 122.59 139.032 122.59 139.032Z"
                fill="#1E1B24" />
        </g>
    </g>
    <g opacity="0.3">
        <g opacity="0.3">
            <g opacity="0.3">
                <path opacity="0.3"
                    d="M136.355 68.5346C135.718 68.3599 135.05 68.3939 134.359 68.6687C125.746 72.0999 120.162 80.7144 117.765 85.1414C117.034 86.4913 115.306 86.9274 114.019 86.0904C114.019 86.0904 120.13 71.6097 131.956 66.899C133.59 66.2488 135.101 66.9468 136.355 68.5346Z"
                    fill="white" />
            </g>
        </g>
        <g opacity="0.3">
            <g opacity="0.3">
                <path opacity="0.3"
                    d="M115.458 86.6082C114.934 86.6082 114.414 86.4574 113.969 86.1675C113.931 86.1432 113.917 86.0954 113.934 86.0544C113.995 85.9094 120.196 71.4845 131.922 66.8136C133.51 66.1818 135.068 66.757 136.427 68.4777C136.452 68.5091 136.454 68.5527 136.432 68.5858C136.41 68.6188 136.37 68.6344 136.331 68.6239C135.699 68.4504 135.047 68.4948 134.393 68.7546C125.905 72.1359 120.382 80.5003 117.846 85.1854C117.486 85.8503 116.859 86.3384 116.126 86.5248C115.906 86.5806 115.681 86.6082 115.458 86.6082ZM114.135 86.0544C114.716 86.4075 115.421 86.5135 116.081 86.3459C116.774 86.1696 117.344 85.7263 117.684 85.0975C120.232 80.3905 125.783 71.986 134.325 68.5832C134.926 68.344 135.526 68.2782 136.113 68.3851C134.851 66.8965 133.43 66.4114 131.989 66.9849C120.763 71.4572 114.623 84.945 114.135 86.0544Z"
                    fill="#1E1B24" />
            </g>
        </g>
    </g>
    <path
        d="M131.055 92.7226C129.997 90.777 127.006 88.6626 124.507 87.1422C122.252 85.7701 121.65 82.7713 123.172 80.6141C125.851 76.8171 129.26 74.0483 131.59 72.424C132.97 71.4617 134.885 72.2032 135.267 73.8426C135.858 76.3835 136.326 80.2994 135.361 84.8966C134.317 89.8691 131.327 92.6338 131.327 92.6338"
        fill="#FF6C6C" />
    <path
        d="M131.056 92.815C131.023 92.815 130.991 92.7974 130.974 92.7668C129.911 90.8111 126.845 88.6715 124.46 87.2211C123.355 86.5491 122.601 85.48 122.337 84.211C122.074 82.9478 122.352 81.6177 123.097 80.5611C125.77 76.7733 129.162 74.0045 131.537 72.3488C132.209 71.8804 133.067 71.7765 133.832 72.0702C134.6 72.3651 135.17 73.0204 135.357 73.8222C135.938 76.3196 136.426 80.2716 135.451 84.9161C134.413 89.8605 131.42 92.6742 131.389 92.7019C131.352 92.7362 131.293 92.7341 131.259 92.6968C131.224 92.6595 131.227 92.6009 131.264 92.5665C131.294 92.5393 134.246 89.7625 135.271 84.8784C136.238 80.2665 135.754 76.3431 135.177 73.8641C135.005 73.1222 134.477 72.5159 133.766 72.2428C133.047 71.9667 132.273 72.0605 131.643 72.5004C129.28 74.1478 125.905 76.9024 123.248 80.6679C122.532 81.683 122.265 82.9608 122.518 84.1741C122.771 85.3924 123.495 86.4188 124.555 87.064C126.959 88.5262 130.053 90.6875 131.136 92.6788C131.16 92.7236 131.144 92.7794 131.099 92.8041C131.085 92.8112 131.07 92.815 131.056 92.815Z"
        fill="#1E1B24" />
    <path
        d="M128.596 87.0645C128.416 87.9241 128.177 88.7168 127.906 89.4424C126.817 88.6041 125.613 87.8152 124.509 87.1432C122.253 85.7707 121.652 82.7723 123.172 80.6134C124.694 78.4546 126.454 76.6288 128.117 75.1558C128.295 75.4017 128.43 75.6895 128.505 76.0117C129.094 78.5526 129.561 82.4677 128.596 87.0645Z"
        fill="#FF6C6C" />
    <path
        d="M127.905 89.5345C127.885 89.5345 127.865 89.5278 127.849 89.5152C126.896 88.7817 125.756 88.01 124.46 87.2219C123.356 86.5499 122.602 85.4812 122.338 84.213C122.074 82.9494 122.351 81.6184 123.096 80.5602C124.444 78.6481 126.113 76.8068 128.055 75.0866C128.074 75.0694 128.099 75.0606 128.126 75.0639C128.152 75.0669 128.175 75.0803 128.19 75.1012C128.383 75.366 128.518 75.6651 128.593 75.9907C129.174 78.4889 129.66 82.4413 128.686 87.0828C128.518 87.8851 128.284 88.6895 127.991 89.4742C127.981 89.5014 127.958 89.5224 127.93 89.5308C127.922 89.5333 127.914 89.5345 127.905 89.5345ZM128.099 75.2939C126.201 76.9848 124.569 78.7922 123.247 80.6666C122.531 81.683 122.266 82.9616 122.518 84.1753C122.772 85.3932 123.496 86.4192 124.556 87.0644C125.813 87.8286 126.924 88.5781 127.862 89.2932C128.132 88.5546 128.348 87.7992 128.505 87.0459C129.473 82.4371 128.99 78.5132 128.414 76.033C128.352 75.7653 128.246 75.5172 128.099 75.2939Z"
        fill="#1E1B24" />
    <g opacity="0.3">
        <g opacity="0.3">
            <g opacity="0.3">
                <path opacity="0.3"
                    d="M82.5854 70.5569C83.2076 70.3345 83.8758 70.3186 84.5859 70.5406C93.4325 73.3149 99.6477 81.4861 102.37 85.7205C103.2 87.0117 104.957 87.3167 106.177 86.3853C106.177 86.3853 98.9954 72.4049 86.8495 68.5954C85.1708 68.07 83.7175 68.879 82.5854 70.5569Z"
                    fill="white" />
            </g>
        </g>
        <g opacity="0.3">
            <g opacity="0.3">
                <path opacity="0.3"
                    d="M104.576 87.0175C104.42 87.0175 104.263 87.0041 104.108 86.9768C103.363 86.8461 102.701 86.4062 102.293 85.7707C99.4114 81.2891 93.2758 73.363 84.5583 70.6289C83.8863 70.4186 83.2327 70.424 82.6164 70.644C82.5792 70.6574 82.5373 70.6453 82.5125 70.6138C82.4882 70.5824 82.4866 70.5388 82.5088 70.5057C83.735 68.6879 85.2454 67.9971 86.8768 68.5078C98.9204 72.285 106.187 86.2034 106.259 86.3434C106.28 86.3832 106.268 86.4318 106.233 86.459C105.755 86.8231 105.17 87.0175 104.576 87.0175ZM83.5888 70.29C83.9244 70.29 84.2667 70.344 84.6132 70.4525C93.3864 73.2038 99.5526 81.1681 102.448 85.6701C102.834 86.2713 103.435 86.671 104.14 86.7946C104.811 86.9127 105.506 86.7535 106.058 86.358C105.488 85.2884 98.3531 72.2997 86.8215 68.6833C85.3421 68.2204 83.9613 68.8098 82.815 70.3893C83.0681 70.3231 83.3266 70.29 83.5888 70.29Z"
                    fill="#1E1B24" />
            </g>
        </g>
    </g>
    <path
        d="M89.6877 94.2782C90.5968 92.2589 93.4193 89.9257 95.7973 88.2219C97.9436 86.6843 98.3185 83.649 96.6385 81.6116C93.682 78.0267 90.0748 75.5218 87.6298 74.0772C86.1807 73.2213 84.3268 74.1049 84.0696 75.7681C83.6707 78.3463 83.499 82.2861 84.8061 86.7978C86.2201 91.6782 89.41 94.2099 89.41 94.2099"
        fill="#FF6C6C" />
    <path
        d="M89.6877 94.3705C89.6751 94.3705 89.6621 94.368 89.65 94.3621C89.6035 94.3412 89.583 94.2867 89.6039 94.2402C90.5344 92.1731 93.4566 89.7859 95.7441 88.147C96.7537 87.4239 97.3981 86.3459 97.5594 85.1121C97.7198 83.8833 97.3583 82.629 96.5681 81.6704C93.6351 78.1152 90.0631 75.622 87.5825 74.1569C86.9205 73.766 86.1417 73.7304 85.4462 74.0593C84.7575 74.3852 84.2769 75.0292 84.1605 75.7824C83.7717 78.2983 83.5831 82.2469 84.8945 86.7728C86.2833 91.566 89.4355 94.1133 89.4669 94.1384C89.5067 94.1702 89.5134 94.228 89.4816 94.2678C89.4501 94.3076 89.3919 94.3144 89.3521 94.2825C89.3199 94.257 86.1228 91.6762 84.7173 86.8239C83.3963 82.2657 83.5861 78.2882 83.9778 75.754C84.1035 74.9404 84.623 74.2445 85.367 73.8926C86.1078 73.5423 86.9712 73.5817 87.6759 73.9981C90.1686 75.4707 93.7595 77.9773 96.7089 81.5535C97.5317 82.5514 97.9079 83.8573 97.7408 85.1364C97.5732 86.4213 96.9016 87.5441 95.8501 88.2974C93.581 89.9229 90.6844 92.287 89.7711 94.3164C89.7564 94.3504 89.7229 94.3705 89.6877 94.3705Z"
        fill="#1E1B24" />
    <path
        d="M91.7151 88.4516C91.9589 89.2953 92.2572 90.0675 92.5823 90.7709C93.605 89.8534 94.7462 88.9761 95.7965 88.2232C97.9432 86.6853 98.3178 83.6504 96.6395 81.6118C94.9591 79.5736 93.0679 77.8848 91.2987 76.5408C91.1391 76.7993 91.0264 77.0967 90.9761 77.4235C90.5793 80.0009 90.4076 83.9399 91.7151 88.4516Z"
        fill="#FF6C6C" />
    <path
        d="M92.5825 90.863C92.5762 90.863 92.57 90.8625 92.5641 90.8613C92.5356 90.8554 92.5113 90.8361 92.4992 90.8098C92.1481 90.0498 91.8544 89.2651 91.6269 88.4774C90.3059 83.9213 90.4945 79.9438 90.8854 77.4092C90.936 77.079 91.0487 76.7703 91.2205 76.4921C91.2339 76.4699 91.2565 76.4548 91.2821 76.4498C91.3077 76.4452 91.3341 76.451 91.3546 76.4669C93.4204 78.0363 95.2223 79.7473 96.7105 81.5526C97.5329 82.5518 97.9082 83.8585 97.7407 85.138C97.5722 86.4225 96.9011 87.5444 95.8499 88.2977C94.6174 89.1809 93.5386 90.0359 92.6433 90.8391C92.6269 90.8546 92.6047 90.863 92.5825 90.863ZM91.3261 76.6768C91.1962 76.9106 91.1095 77.1658 91.068 77.4372C90.6801 79.9535 90.4928 83.9025 91.8041 88.4259C92.0178 89.1654 92.2901 89.9027 92.6148 90.6187C93.4963 89.8353 94.5482 89.0045 95.7435 88.1477C96.7528 87.4246 97.3975 86.3475 97.5588 85.1141C97.7197 83.8849 97.359 82.6297 96.5689 81.6699C95.1092 79.8998 93.3459 78.2203 91.3261 76.6768Z"
        fill="#1E1B24" />
    <path
        d="M141.214 110.269C138.887 109.196 136.826 105.408 136.238 103.498C135.897 102.394 135.091 100.219 134.47 98.5765C144.879 89.135 139.984 63.9791 132.526 66.9503C124.104 70.3053 118.58 78.6139 116.098 83.1197C112.563 82.4515 110.044 82.733 110.044 82.733C110.044 82.733 107.445 82.6388 103.901 83.6091C101.096 79.3094 94.9553 71.4084 86.2851 68.6894C78.5965 66.2779 75.6114 91.9269 86.8452 100.467C86.3538 102.139 85.7337 104.303 85.4832 105.407C85.0387 107.356 83.2682 111.288 81.026 112.532C79.7042 113.266 79.6811 114.391 80.6397 115.199C81.2547 115.717 82.277 116.106 83.6164 116.174C83.7223 116.181 83.833 116.183 83.9431 116.185C83.9431 116.185 83.9415 116.185 83.9373 116.19C83.9356 116.19 83.9356 116.19 83.9356 116.19C83.8568 116.246 83.1978 116.705 81.5111 117.912C79.8592 119.097 81.2786 120.536 84.1853 121.923C87.0903 123.308 90.8898 126.644 91.6623 127.13C92.1148 127.414 94.5426 129.217 99.0556 130.568C102.267 131.53 106.534 132.266 111.897 132.064H111.899C124.796 131.579 130.972 126.168 131.705 125.624C132.439 125.082 135.977 121.469 138.772 119.87C141.564 118.269 142.872 116.727 141.134 115.67C139.239 114.516 138.579 114.131 138.579 114.131C138.686 114.122 138.792 114.11 138.894 114.097C140.231 113.929 141.226 113.464 141.801 112.899C142.696 112.021 142.589 110.901 141.214 110.269Z"
        fill="#F99B28" />
    <g opacity="0.4">
        <g opacity="0.4">
            <g opacity="0.4">
                <path opacity="0.4"
                    d="M132.614 69.3018C125.505 72.1339 121.06 79.2054 118.354 84.0523C117.572 85.452 116.035 86.261 114.44 86.0972C112.025 85.8491 110.164 85.9116 110.164 85.9116C110.164 85.9116 108.255 85.9878 105.805 86.4357C104.22 86.7252 102.614 86.0561 101.726 84.7113C98.667 80.0793 93.6945 73.3376 86.3741 71.0413C82.2919 69.761 79.5368 76.3867 79.5285 84.1641C78.8556 75.3498 81.7518 67.0462 86.2774 68.4664C94.948 71.1846 101.089 79.086 103.893 83.3861C107.437 82.4154 110.037 82.5105 110.037 82.5105C110.037 82.5105 112.556 82.229 116.089 82.8972C118.572 78.3901 124.095 70.0819 132.517 66.7274C136.923 64.9711 140.435 73.0338 140.426 81.8737C139.833 74.1189 136.589 67.7186 132.614 69.3018Z"
                    fill="white" />
            </g>
        </g>
    </g>
    <path
        d="M83.7607 116.18C83.8196 116.183 83.8819 116.184 83.9425 116.185C83.9425 116.185 83.9408 116.186 83.9366 116.19C83.9349 116.19 83.9349 116.19 83.9349 116.19C83.9245 116.198 83.9032 116.211 83.8714 116.234C83.8334 116.217 83.7971 116.198 83.7607 116.18Z"
        fill="#982E20" />
    <path
        d="M83.8719 116.326C83.8589 116.326 83.8459 116.324 83.8338 116.318C83.8099 116.307 83.7868 116.296 83.7638 116.284L83.7215 116.264C83.6821 116.245 83.6612 116.201 83.6716 116.159C83.6821 116.116 83.7211 116.09 83.7651 116.089C83.8166 116.091 83.8706 116.092 83.9238 116.092C83.9607 116.093 84.0043 116.116 84.0181 116.15C84.0319 116.185 84.0344 116.224 84.008 116.25C84.0047 116.254 83.9951 116.262 83.9909 116.265C83.9871 116.268 83.9833 116.27 83.9791 116.272C83.9733 116.276 83.9674 116.281 83.9666 116.281L83.9259 116.309C83.91 116.32 83.8907 116.326 83.8719 116.326Z"
        fill="#1E1B24" />
    <path
        d="M138.772 119.869C135.978 121.468 132.44 125.081 131.706 125.624C130.972 126.167 124.796 131.579 111.899 132.064H111.897C106.535 132.265 102.267 131.53 99.0559 130.567C94.5429 129.216 92.1147 127.414 91.6627 127.129C90.8905 126.644 87.0911 123.307 84.1856 121.922C81.2789 120.536 79.8595 119.096 81.5115 117.912C83.1982 116.704 83.8572 116.246 83.9359 116.19C83.9359 116.19 83.9359 116.19 83.9376 116.19C83.9422 116.185 83.9435 116.185 83.9435 116.185C83.8329 116.182 83.7227 116.18 83.6167 116.174C84.0369 116.015 84.5036 115.862 85.0206 115.72C89.2076 114.564 94.8383 120.198 102.204 116.998C107.858 114.542 104.961 101.172 106.348 97.6141C106.362 97.5777 106.376 97.5429 106.39 97.5069C107.869 93.8272 113.027 93.6332 114.777 97.1914C114.796 97.2266 114.813 97.2601 114.829 97.2953C116.48 100.739 114.595 114.289 120.416 116.314C128.003 118.951 133.194 112.91 137.456 113.748C137.984 113.851 138.461 113.97 138.894 114.097C138.791 114.109 138.686 114.121 138.579 114.13C138.579 114.13 139.239 114.516 141.134 115.67C142.872 116.727 141.565 118.269 138.772 119.869Z"
        fill="white" />
    <path
        d="M103.9 84.3468C103.577 84.3468 103.279 84.1319 103.189 83.8043C103.082 83.4113 103.313 83.0058 103.706 82.8977C107.077 81.9735 109.604 81.9856 110.014 81.994C110.417 81.955 112.873 81.7581 116.234 82.3958C116.634 82.4716 116.898 82.8579 116.822 83.258C116.746 83.6581 116.359 83.9212 115.96 83.8453C112.589 83.206 110.147 83.4633 110.124 83.4658C110.088 83.47 110.052 83.4712 110.015 83.47C109.991 83.4691 107.473 83.3945 104.096 84.3204C104.031 84.3384 103.965 84.3468 103.9 84.3468Z"
        fill="#1E1B24" />
    <path
        d="M103.557 131.865C102.479 131.809 101.402 131.665 100.344 131.437C99.2899 131.198 98.2438 130.911 97.2253 130.547C95.1838 129.823 93.2277 128.903 91.3579 127.78C91.2532 127.717 91.0827 127.602 90.983 127.527C90.8682 127.443 90.7563 127.36 90.6507 127.278L90.0152 126.786L88.7604 125.819C87.9221 125.183 87.0754 124.566 86.2103 123.993C85.7783 123.705 85.3397 123.435 84.8985 123.177C84.6757 123.058 84.4557 122.924 84.2311 122.816L83.8964 122.648L83.5298 122.47C83.035 122.226 82.5449 121.962 82.0622 121.655C81.5817 121.343 81.1028 121.004 80.6604 120.507C80.4434 120.255 80.2255 119.951 80.0957 119.534C80.0299 119.328 80.0027 119.083 80.0232 118.844C80.0425 118.602 80.1175 118.365 80.2209 118.171C80.4287 117.769 80.7119 117.521 80.9784 117.313C81.0526 117.255 81.0982 117.224 81.1539 117.184L81.3161 117.067L81.6403 116.835L82.9399 115.908L83.1025 115.793L83.123 115.778L83.1331 115.771L83.0966 115.798C83.0371 115.847 82.9822 115.91 82.9412 115.982C82.8582 116.127 82.839 116.286 82.8624 116.423C82.8867 116.561 82.9529 116.696 83.082 116.809C83.1461 116.866 83.2261 116.91 83.3082 116.939C83.3509 116.952 83.3911 116.962 83.4301 116.967C83.4452 116.97 83.4804 116.972 83.4791 116.972L83.4653 116.971L83.2454 116.953C82.9525 116.927 82.6592 116.886 82.366 116.823C81.7803 116.701 81.1921 116.506 80.6315 116.173C80.3525 116.005 80.0798 115.801 79.8338 115.538C79.59 115.274 79.3705 114.94 79.2502 114.533C79.1325 114.128 79.1434 113.645 79.3047 113.248C79.4593 112.847 79.7132 112.532 79.9796 112.295L80.1841 112.127L80.3935 111.981L80.606 111.853C80.6474 111.829 80.66 111.819 80.6851 111.803L80.753 111.759C80.8427 111.697 80.9378 111.652 81.0253 111.579L81.2909 111.369C81.9851 110.758 82.5863 109.947 83.0954 109.083C83.6136 108.221 84.0489 107.291 84.3962 106.346L84.5202 105.991L84.6296 105.636C84.6648 105.518 84.6916 105.402 84.7238 105.285L84.821 104.892C84.9543 104.363 85.098 103.848 85.2429 103.333C85.5324 102.303 85.8462 101.286 86.1562 100.268C86.271 99.8901 86.6707 99.6773 87.0478 99.7925C87.4202 99.9061 87.6318 100.297 87.527 100.67C87.2396 101.69 86.9631 102.713 86.6879 103.731C86.5526 104.239 86.4177 104.75 86.2987 105.253L86.2103 105.633C86.1751 105.773 86.1428 105.916 86.1039 106.053L85.984 106.461L85.8508 106.86C85.48 107.913 85.0246 108.921 84.4624 109.888C83.8989 110.852 83.2303 111.78 82.3308 112.578L81.973 112.863C81.8553 112.959 81.7124 113.036 81.5825 113.123L81.3932 113.242L81.2645 113.319L81.1477 113.401L81.0442 113.486C80.9147 113.601 80.8364 113.719 80.7995 113.815C80.7605 113.912 80.7643 113.988 80.7886 114.092C80.8209 114.195 80.8913 114.323 81.0073 114.447C81.1246 114.572 81.2788 114.692 81.4543 114.797C81.8083 115.007 82.2403 115.158 82.6923 115.251C82.9186 115.299 83.1519 115.331 83.3878 115.352L83.565 115.366L83.5763 115.367L83.6501 115.375C83.7054 115.382 83.7619 115.395 83.8202 115.414C83.9341 115.452 84.0426 115.515 84.1327 115.592C84.3124 115.749 84.41 115.946 84.4461 116.15C84.4817 116.351 84.4515 116.579 84.335 116.782C84.2781 116.883 84.201 116.972 84.1155 117.041L84.0598 117.084L84.0497 117.091L84.0296 117.105L83.8679 117.22L82.5717 118.141L81.9386 118.59C81.787 118.703 81.668 118.826 81.6353 118.902C81.6127 118.941 81.6077 118.963 81.606 118.986C81.6056 119.009 81.6005 119.035 81.6169 119.082C81.6424 119.174 81.7254 119.323 81.8549 119.471C82.1159 119.772 82.5021 120.069 82.9098 120.334C83.3216 120.6 83.7653 120.845 84.2211 121.074L84.5697 121.247L84.945 121.439C85.1972 121.566 85.4302 121.711 85.6732 121.846C86.1449 122.131 86.6062 122.425 87.054 122.732C87.951 123.345 88.812 123.992 89.657 124.652L90.9109 125.647L91.5289 126.139C91.6319 126.221 91.7321 126.298 91.8305 126.372C91.9424 126.457 91.9918 126.491 92.1116 126.57C92.9776 127.128 93.8938 127.635 94.8168 128.118C95.7397 128.605 96.6878 129.041 97.6447 129.457C98.605 129.865 99.584 130.226 100.578 130.546C101.572 130.869 102.588 131.109 103.616 131.325L103.625 131.327C103.772 131.358 103.867 131.502 103.836 131.649C103.81 131.783 103.689 131.872 103.557 131.865Z"
        fill="#1E1B24" />
    <path
        d="M135.14 98.3272C135.508 99.2765 135.877 100.226 136.228 101.185C136.404 101.665 136.578 102.146 136.745 102.635L136.989 103.367C137.059 103.585 137.147 103.806 137.235 104.027C137.607 104.909 138.071 105.776 138.602 106.583C139.129 107.393 139.728 108.153 140.403 108.77C140.485 108.853 140.576 108.915 140.662 108.988C140.749 109.059 140.834 109.133 140.926 109.189L141.195 109.371L141.469 109.517L141.537 109.554L141.64 109.606C141.711 109.642 141.781 109.673 141.851 109.717C141.991 109.796 142.129 109.889 142.265 109.994C142.533 110.206 142.793 110.488 142.969 110.856C143.15 111.22 143.202 111.672 143.13 112.07C143.059 112.471 142.88 112.808 142.675 113.087C142.255 113.642 141.728 113.987 141.198 114.252C140.663 114.51 140.112 114.678 139.56 114.785C139.422 114.815 139.283 114.833 139.145 114.856L139.119 114.86L139.106 114.862C139.103 114.863 139.089 114.865 139.117 114.861C139.189 114.85 139.267 114.823 139.338 114.782C139.483 114.698 139.58 114.565 139.624 114.439C139.669 114.312 139.676 114.179 139.634 114.037C139.595 113.897 139.484 113.753 139.366 113.68L139.994 114.059L141.299 114.854L141.462 114.953L141.544 115.003L141.646 115.07C141.781 115.156 141.917 115.262 142.05 115.385C142.31 115.623 142.581 115.993 142.664 116.452C142.755 116.913 142.633 117.35 142.48 117.667C142.321 117.992 142.126 118.246 141.927 118.472C141.523 118.918 141.09 119.26 140.65 119.578C140.209 119.891 139.759 120.173 139.304 120.435L139.135 120.533L138.981 120.626L138.673 120.81C138.47 120.942 138.267 121.074 138.065 121.212C136.455 122.336 134.949 123.674 133.454 125.035L132.889 125.549C132.695 125.722 132.511 125.891 132.287 126.076C132.229 126.122 132.161 126.177 132.111 126.215L131.956 126.327L131.634 126.555C131.418 126.704 131.2 126.849 130.981 126.991C130.107 127.559 129.199 128.061 128.276 128.527C126.423 129.446 124.49 130.191 122.504 130.72C122.305 130.772 122.101 130.654 122.048 130.456C122 130.276 122.093 130.091 122.259 130.019L122.264 130.017C123.189 129.614 124.112 129.217 125.014 128.78C125.915 128.342 126.805 127.885 127.672 127.392C128.543 126.906 129.388 126.378 130.209 125.828C130.413 125.688 130.615 125.547 130.814 125.402L131.108 125.183L131.259 125.068L131.38 124.97C131.547 124.83 131.736 124.655 131.919 124.488L132.476 123.972C133.972 122.587 135.495 121.202 137.208 119.983C137.424 119.832 137.645 119.686 137.867 119.539L138.21 119.329L138.382 119.224L138.541 119.129C138.964 118.881 139.373 118.619 139.757 118.34C140.138 118.061 140.5 117.762 140.774 117.45C140.91 117.296 141.02 117.138 141.082 117.004C141.146 116.868 141.151 116.784 141.139 116.743C141.13 116.7 141.098 116.627 140.986 116.526C140.931 116.477 140.867 116.425 140.788 116.376L140.73 116.339L140.649 116.29L140.486 116.193L139.185 115.411L138.509 115.001C138.338 114.895 138.186 114.697 138.128 114.496C138.068 114.293 138.076 114.094 138.143 113.907C138.208 113.721 138.347 113.536 138.547 113.42C138.646 113.362 138.754 113.325 138.857 113.308L138.924 113.298C139.035 113.279 139.149 113.265 139.259 113.241C139.704 113.156 140.13 113.022 140.512 112.839C140.888 112.655 141.224 112.412 141.416 112.151C141.511 112.022 141.57 111.896 141.587 111.795C141.6 111.694 141.598 111.616 141.551 111.524C141.508 111.432 141.423 111.324 141.294 111.223C141.229 111.173 141.157 111.123 141.075 111.077C141.038 111.052 140.991 111.033 140.949 111.011L140.782 110.924L140.385 110.71L140.023 110.466C139.899 110.387 139.792 110.295 139.682 110.205C139.574 110.114 139.457 110.029 139.358 109.932C138.538 109.174 137.869 108.325 137.3 107.427C136.726 106.53 136.237 105.594 135.831 104.6C135.733 104.348 135.636 104.096 135.553 103.83L135.324 103.114C135.168 102.64 135.001 102.164 134.833 101.688C134.496 100.737 134.155 99.783 133.805 98.832C133.669 98.4617 133.859 98.0511 134.229 97.9149C134.593 97.78 134.999 97.9652 135.14 98.3272Z"
        fill="#1E1B24" />
    <path
        d="M135.36 84.8966C134.317 89.8683 131.327 92.6326 131.327 92.6326L131.056 92.7226C130.466 91.6384 129.276 90.5022 127.906 89.4418C126.817 88.6035 125.613 87.8146 124.509 87.1426C122.253 85.7701 121.652 82.7717 123.172 80.6129C124.694 78.454 126.454 76.6282 128.117 75.1552C129.379 74.0387 130.587 73.1245 131.591 72.4236C132.972 71.4613 134.886 72.2024 135.267 73.8413C135.858 76.3848 136.325 80.2999 135.36 84.8966Z"
        fill="#FF6C6C" />
    <g opacity="0.3">
        <g opacity="0.3">
            <path opacity="0.3"
                d="M128.596 87.0645C128.416 87.9241 128.177 88.7168 127.906 89.4424C126.817 88.6041 125.613 87.8152 124.509 87.1432C122.253 85.7707 121.652 82.7723 123.172 80.6134C124.694 78.4546 126.454 76.6288 128.117 75.1558C128.295 75.4017 128.43 75.6895 128.505 76.0117C129.094 78.5526 129.561 82.4677 128.596 87.0645Z"
                fill="#1E1B24" />
        </g>
    </g>
    <path
        d="M130.722 92.9034C130.422 92.4283 130.031 91.998 129.618 91.59C129.198 91.1861 128.756 90.7981 128.289 90.4362C127.819 90.0767 127.343 89.7227 126.851 89.3884C126.357 89.0557 125.855 88.7327 125.349 88.4152C125.094 88.2589 124.84 88.1018 124.581 87.951L124.194 87.7243L123.999 87.6124C123.934 87.5743 123.873 87.5416 123.793 87.4893C123.182 87.1147 122.655 86.5873 122.292 85.963C121.934 85.3371 121.711 84.6274 121.691 83.9022C121.672 83.1795 121.819 82.4463 122.144 81.7986L122.272 81.5603L122.337 81.443L122.401 81.3449L122.653 80.9524L123.161 80.1689L123.71 79.4144L123.985 79.0378L124.278 78.6749L124.865 77.9518L125.489 77.2601C125.694 77.0272 125.909 76.8047 126.129 76.5848C126.348 76.3661 126.557 76.1369 126.785 75.9275C127.682 75.0728 128.636 74.2814 129.637 73.5583C130.643 72.8398 131.68 72.1783 132.814 71.6558C132.919 71.6072 133.043 71.6533 133.092 71.7585C133.135 71.8515 133.104 71.96 133.023 72.017L133.014 72.0237C132.042 72.7149 131.104 73.4799 130.213 74.2768C129.762 74.6702 129.333 75.0879 128.904 75.5031L128.27 76.1353L127.659 76.7876C126.853 77.6649 126.079 78.5694 125.375 79.525L125.106 79.879L124.851 80.2431L124.341 80.9708L123.862 81.7186L123.622 82.0923L123.562 82.1858L123.517 82.2683L123.43 82.4304C122.993 83.3115 123.031 84.3991 123.512 85.2613C123.752 85.6924 124.105 86.0535 124.519 86.3258C124.563 86.3598 124.635 86.4029 124.699 86.4436L124.895 86.5663L125.284 86.8148C125.544 86.9802 125.8 87.152 126.057 87.3229C127.081 88.013 128.07 88.7616 129 89.5962C129.461 90.0168 129.908 90.4596 130.317 90.9439C130.727 91.4262 131.105 91.949 131.388 92.5418C131.479 92.7308 131.399 92.957 131.21 93.0475C131.035 93.1313 130.827 93.0684 130.726 92.908L130.722 92.9034Z"
        fill="#1E1B24" />
    <path
        d="M84.807 86.7982C86.2209 91.6773 89.4096 94.2095 89.4096 94.2095L89.6865 94.279C90.1934 93.1537 91.2944 91.9312 92.5819 90.7707C93.6045 89.8532 94.7458 88.9759 95.7961 88.2231C97.9428 86.6851 98.3173 83.6502 96.639 81.6116C94.9586 79.5734 93.0674 77.8846 91.2982 76.5406C89.9559 75.5222 88.6819 74.7014 87.6286 74.0776C86.1799 73.2217 84.3264 74.1044 84.07 75.7672C83.6712 78.3476 83.4994 82.287 84.807 86.7982Z"
        fill="#FF6C6C" />
    <g opacity="0.3">
        <g opacity="0.3">
            <path opacity="0.3"
                d="M91.7146 88.4516C91.9585 89.2953 92.2567 90.0675 92.5819 90.7709C93.6045 89.8534 94.7457 88.9761 95.7961 88.2232C97.9428 86.6853 98.3173 83.6504 96.639 81.6118C94.9586 79.5736 93.0674 77.8848 91.2982 76.5408C91.1386 76.7993 91.0259 77.0967 90.9756 77.4235C90.5788 80.0009 90.4071 83.9399 91.7146 88.4516Z"
                fill="#1E1B24" />
        </g>
    </g>
    <path
        d="M89.3424 94.1231C89.5804 93.5105 89.9181 92.9609 90.2905 92.4493C90.6617 91.9357 91.0748 91.4606 91.503 91.0065C92.3668 90.1049 93.2973 89.2837 94.266 88.5187C94.5094 88.329 94.7519 88.1383 94.9987 87.954L95.3686 87.6771L95.5546 87.5401C95.6158 87.4948 95.6837 87.4466 95.7256 87.4094C96.1186 87.1065 96.4432 86.7202 96.6498 86.2723C97.065 85.3766 97.021 84.289 96.5195 83.4431L96.4198 83.2881L96.3695 83.2089L96.3025 83.1201L96.0352 82.7653L95.501 82.0556L94.9375 81.3681L94.6556 81.0241L94.3606 80.691C93.5868 79.7911 92.7472 78.9474 91.8783 78.1329L91.2193 77.5284L90.5398 76.9456C90.081 76.5644 89.6215 76.1798 89.1422 75.8212C88.1941 75.0934 87.2007 74.4013 86.1798 73.785L86.1701 73.7792C86.0708 73.7193 86.0394 73.5907 86.0989 73.4914C86.1517 73.4038 86.2589 73.3686 86.3515 73.4034C87.5208 73.8391 88.6047 74.421 89.6617 75.062C90.7141 75.7076 91.725 76.4253 92.6836 77.21C92.927 77.4019 93.1524 77.6147 93.3882 77.8162C93.6229 78.019 93.855 78.2247 94.0766 78.4417L94.7503 79.0848L95.3904 79.7618L95.7097 80.1016L96.0117 80.4569L96.6158 81.1678L97.1806 81.911L97.4617 82.2835L97.5321 82.3765L97.6058 82.4883L97.752 82.7167C98.1245 83.338 98.3268 84.0582 98.362 84.78C98.396 85.5044 98.2267 86.2292 97.9171 86.8802C97.6012 87.53 97.1161 88.0956 96.5346 88.515C96.4583 88.5736 96.4005 88.6109 96.3381 88.6536L96.1525 88.7802L95.7834 89.0353C95.537 89.2054 95.2953 89.3809 95.0527 89.5561C94.5714 89.9105 94.0959 90.2704 93.6283 90.639C93.162 91.0094 92.7142 91.3982 92.273 91.792C91.8344 92.1883 91.4229 92.6081 91.035 93.0426C90.6537 93.4804 90.296 93.9391 90.032 94.4352L90.0295 94.4398C89.9311 94.6245 89.7019 94.6949 89.5167 94.5965C89.3462 94.5039 89.2737 94.2998 89.3424 94.1231Z"
        fill="#1E1B24" />
    <path
        d="M115.176 118.704C115.327 122.71 113.759 126.021 111.674 126.099C109.589 126.178 107.777 122.994 107.626 118.988"
        fill="#FF6C6C" />
    <path
        d="M111.599 126.193C109.5 126.193 107.684 122.993 107.534 118.992C107.532 118.941 107.571 118.898 107.623 118.896C107.672 118.898 107.716 118.934 107.718 118.985C107.866 122.934 109.635 126.085 111.67 126.008C113.701 125.931 115.232 122.656 115.083 118.708C115.081 118.657 115.121 118.614 115.172 118.612C115.222 118.612 115.266 118.65 115.268 118.701C115.42 122.752 113.809 126.112 111.677 126.192C111.651 126.192 111.625 126.193 111.599 126.193Z"
        fill="#1E1B24" />
    <path
        d="M115.181 119.611C115.146 120.927 114.923 122.142 114.559 123.156C113.934 124.904 112.893 126.054 111.674 126.1C110.455 126.146 109.328 125.076 108.575 123.375C108.137 122.394 107.825 121.201 107.691 119.893L115.181 119.611Z"
        fill="#ED2E7A" />
    <path
        d="M111.597 126.206C110.399 126.206 109.266 125.195 108.479 123.418C108.027 122.405 107.718 121.189 107.587 119.903L107.576 119.792L115.288 119.502L115.285 119.614C115.251 120.904 115.034 122.142 114.657 123.192C113.989 125.06 112.903 126.159 111.677 126.205C111.65 126.206 111.624 126.206 111.597 126.206ZM107.807 119.993C107.942 121.216 108.24 122.369 108.67 123.332C109.438 125.068 110.529 126.042 111.669 125.995C112.805 125.952 113.822 124.905 114.46 123.121C114.818 122.121 115.029 120.948 115.072 119.719L107.807 119.993Z"
        fill="#1E1B24" />
    <path
        d="M111.259 123.432L110.793 119.284C110.754 118.94 111.002 118.63 111.346 118.591C111.69 118.553 112 118.8 112.039 119.144C112.042 119.175 112.043 119.208 112.042 119.237L111.889 123.408C111.883 123.583 111.736 123.719 111.562 123.713C111.403 123.707 111.276 123.585 111.259 123.432Z"
        fill="#1E1B24" />
    <path
        d="M111.574 126.727C109.201 126.727 107.195 124.15 107.073 120.907C107.06 120.562 107.329 120.271 107.674 120.258C108.018 120.243 108.309 120.515 108.322 120.86C108.42 123.47 109.917 125.544 111.65 125.475C112.45 125.445 113.199 124.953 113.76 124.089C114.365 123.158 114.671 121.926 114.622 120.623C114.609 120.278 114.879 119.987 115.223 119.974C115.567 119.96 115.859 120.231 115.872 120.576C115.93 122.135 115.553 123.624 114.808 124.771C114.019 125.985 112.914 126.679 111.697 126.725C111.656 126.726 111.615 126.727 111.574 126.727Z"
        fill="#1E1B24" />
    <g opacity="0.3">
        <g opacity="0.3">
            <path opacity="0.3"
                d="M118.515 118.15C118.381 120.3 117.053 122.947 114.487 122.786C112.249 122.646 111.482 121.029 111.482 121.029L111.437 121.031C111.437 121.031 110.788 122.667 108.572 123.009C106.233 123.37 104.512 120.883 104.218 118.749"
                fill="#1E1B24" />
        </g>
    </g>
    <path
        d="M117.828 117.841C117.695 119.99 116.375 121.098 114.417 120.948C112.181 120.776 111.543 119.039 111.382 118.388L111.337 118.39C111.225 119.05 110.719 120.831 108.502 121.17C106.561 121.467 105.162 120.462 104.868 118.328"
        fill="white" />
    <path
        d="M107.86 121.312C107.155 121.312 106.533 121.123 106.036 120.752C105.36 120.248 104.925 119.414 104.776 118.34C104.769 118.29 104.805 118.244 104.855 118.237C104.906 118.229 104.952 118.265 104.959 118.315C105.1 119.338 105.511 120.13 106.146 120.604C106.752 121.056 107.562 121.22 108.489 121.079C110.618 120.753 111.127 119.079 111.247 118.374C111.254 118.331 111.29 118.299 111.334 118.298L111.378 118.296C111.422 118.296 111.461 118.324 111.471 118.366C111.643 119.06 112.276 120.691 114.424 120.856C115.358 120.928 116.154 120.703 116.724 120.207C117.323 119.687 117.672 118.866 117.737 117.835C117.74 117.784 117.783 117.746 117.834 117.749C117.885 117.752 117.924 117.796 117.92 117.847C117.853 118.928 117.481 119.792 116.845 120.346C116.237 120.876 115.395 121.116 114.411 121.04C112.39 120.885 111.639 119.501 111.371 118.682C111.165 119.519 110.52 120.955 108.517 121.261C108.291 121.295 108.072 121.312 107.86 121.312Z"
        fill="#1E1B24" />
    <g opacity="0.3">
        <g opacity="0.3">
            <path opacity="0.3"
                d="M117.829 117.841C117.695 119.99 116.377 121.098 114.417 120.947C112.182 120.776 111.544 119.039 111.381 118.388L111.337 118.39C111.225 119.051 110.72 120.831 108.502 121.169C106.562 121.467 105.162 120.462 104.869 118.328L105.445 118.306C106.09 119.213 107.142 119.596 108.436 119.397C109.558 119.226 110.24 118.686 110.657 118.11L112.042 118.058C112.5 118.601 113.221 119.088 114.351 119.175C115.658 119.276 116.679 118.816 117.253 117.862L117.829 117.841Z"
                fill="#1E1B24" />
        </g>
    </g>
    <path
        d="M107.859 121.846C107.039 121.846 106.309 121.62 105.718 121.179C104.925 120.588 104.417 119.631 104.249 118.414C104.202 118.072 104.441 117.756 104.783 117.709C105.126 117.662 105.441 117.901 105.488 118.243C105.609 119.121 105.947 119.79 106.465 120.177C106.954 120.542 107.626 120.672 108.408 120.552C110.13 120.289 110.597 119.019 110.722 118.285C110.771 117.994 111.018 117.777 111.313 117.765L111.357 117.764C111.655 117.754 111.917 117.95 111.989 118.238C112.168 118.96 112.728 120.191 114.465 120.324C115.255 120.386 115.915 120.205 116.375 119.805C116.863 119.38 117.15 118.688 117.205 117.802C117.226 117.458 117.525 117.198 117.868 117.217C118.212 117.238 118.474 117.535 118.453 117.88C118.377 119.107 117.942 120.099 117.196 120.748C116.477 121.373 115.501 121.658 114.37 121.571C112.841 121.454 111.941 120.701 111.419 119.953C110.955 120.738 110.114 121.557 108.598 121.788C108.345 121.826 108.098 121.846 107.859 121.846Z"
        fill="#1E1B24" />
    <path
        d="M134.471 99.3171C134.271 99.3171 134.071 99.2354 133.925 99.075C133.651 98.7733 133.674 98.3066 133.976 98.0331C141.209 91.4735 140.918 76.2756 136.897 69.8317C136.024 68.4329 134.605 66.9167 132.799 67.6356C124.631 70.8892 119.233 78.9573 116.743 83.477C116.546 83.8339 116.097 83.9634 115.741 83.7669C115.384 83.5704 115.254 83.1217 115.451 82.7648C118.036 78.0721 123.658 69.6889 132.253 66.2652C134.4 65.4097 136.494 66.3989 138.149 69.0508C140.247 72.4133 141.417 78.2003 141.129 83.7937C140.789 90.3859 138.601 95.831 134.967 99.1261C134.825 99.2539 134.648 99.3171 134.471 99.3171Z"
        fill="#1E1B24" />
    <path
        d="M86.8417 101.207C86.6863 101.207 86.5291 101.157 86.3959 101.056C82.4817 98.0811 79.8515 92.8275 78.9889 86.2629C78.2582 80.7013 78.9713 74.8151 80.805 71.2661C82.2584 68.4537 84.2827 67.2886 86.5057 67.9857C95.3485 70.76 101.587 78.7126 104.518 83.2062C104.741 83.5473 104.645 84.0044 104.303 84.2272C103.962 84.4497 103.505 84.3538 103.282 84.0123C100.458 79.6841 94.467 72.0299 86.0637 69.3934C84.1927 68.8065 82.8839 70.4563 82.1155 71.9432C78.9868 77.9974 79.0148 93.5925 87.2887 99.8814C87.613 100.128 87.6762 100.591 87.4295 100.915C87.2845 101.106 87.0646 101.207 86.8417 101.207Z"
        fill="#1E1B24" />
    <g opacity="0.3">
        <g opacity="0.3">
            <path opacity="0.3"
                d="M138.772 119.87C135.977 121.469 132.438 125.082 131.705 125.624C130.971 126.168 124.797 131.578 111.899 132.064H111.897C106.534 132.265 102.267 131.53 99.0561 130.567C94.5436 129.216 92.1141 127.414 91.6616 127.13C90.8903 126.645 87.09 123.308 84.1846 121.923C81.2792 120.537 79.8593 119.096 81.5117 117.911C81.7718 117.725 82.0086 117.557 82.2218 117.407C88.5563 121.972 99.5366 128.344 111.74 127.885C123.944 127.426 134.417 120.247 140.39 115.218C140.614 115.354 140.861 115.503 141.134 115.67C142.871 116.726 141.565 118.269 138.772 119.87Z"
                fill="#1E1B24" />
        </g>
    </g>
    <path
        d="M111.32 117.956C110.985 117.956 110.708 117.691 110.695 117.354L110.613 115.163C110.6 114.818 110.869 114.528 111.214 114.515C111.559 114.503 111.849 114.771 111.862 115.116L111.945 117.307C111.958 117.652 111.688 117.942 111.343 117.955C111.335 117.956 111.327 117.956 111.32 117.956Z"
        fill="#1E1B24" />
    <path
        d="M115.19 114.401C115.238 115.695 113.455 117.5 111.174 117.585C108.893 117.671 106.979 116.005 106.931 114.711C106.882 113.418 108.727 113.239 111.007 113.153C113.288 113.068 115.141 113.107 115.19 114.401Z"
        fill="#1E1B24" />
    <path
        d="M112.832 114.118C112.842 114.402 112.054 114.813 111.064 114.85C110.074 114.887 109.257 114.537 109.247 114.253C109.236 113.97 110.038 113.915 111.028 113.878C112.018 113.841 112.821 113.835 112.832 114.118Z"
        fill="white" />
    <path
        d="M110.918 114.937C110.503 114.937 110.096 114.872 109.76 114.751C109.387 114.617 109.17 114.437 109.163 114.257C109.154 114.017 109.493 113.934 109.748 113.891C110.059 113.839 110.483 113.815 111.024 113.795C111.565 113.774 111.99 113.767 112.304 113.795C112.562 113.818 112.906 113.877 112.915 114.115C112.929 114.5 112.031 114.898 111.067 114.934C111.018 114.936 110.968 114.937 110.918 114.937ZM111.799 113.944C111.577 113.944 111.321 113.951 111.031 113.962C110.496 113.982 110.078 114.006 109.776 114.056C109.37 114.123 109.329 114.214 109.33 114.25C109.334 114.332 109.487 114.475 109.817 114.593C110.174 114.722 110.616 114.783 111.061 114.767C112.048 114.73 112.756 114.321 112.748 114.122C112.747 114.086 112.7 113.998 112.289 113.961C112.15 113.949 111.987 113.944 111.799 113.944Z"
        fill="#1E1B24" />
    <path
        d="M103.123 109.068C103.382 106.426 102.083 104.135 100.22 103.952C98.3572 103.769 96.6369 105.763 96.3775 108.406C96.118 111.049 97.4177 113.34 99.2803 113.523C101.143 113.705 102.863 111.711 103.123 109.068Z"
        fill="#1E1B24" />
    <path
        d="M101.705 108.168C101.792 107.281 101.407 106.517 100.844 106.461C100.281 106.406 99.7542 107.081 99.667 107.968C99.5799 108.856 99.9655 109.62 100.528 109.675C101.091 109.73 101.618 109.056 101.705 108.168Z"
        fill="white" />
    <path
        d="M100.595 109.782C100.569 109.782 100.544 109.781 100.519 109.779C100.21 109.748 99.9406 109.536 99.7608 109.18C99.5895 108.841 99.5191 108.406 99.5631 107.957C99.6071 107.509 99.7604 107.096 99.9946 106.796C100.24 106.482 100.543 106.326 100.854 106.357C101.163 106.387 101.432 106.6 101.612 106.955C101.784 107.295 101.854 107.729 101.81 108.178C101.766 108.626 101.613 109.039 101.378 109.339C101.153 109.627 100.878 109.782 100.595 109.782ZM100.78 106.562C100.563 106.562 100.344 106.689 100.161 106.925C99.9502 107.194 99.8124 107.568 99.7721 107.978C99.7319 108.388 99.7943 108.781 99.9485 109.086C100.094 109.375 100.304 109.547 100.54 109.57C100.776 109.593 101.014 109.466 101.214 109.21C101.424 108.941 101.562 108.567 101.602 108.157C101.642 107.747 101.58 107.354 101.426 107.049C101.28 106.76 101.07 106.588 100.835 106.565C100.816 106.564 100.798 106.562 100.78 106.562Z"
        fill="#1E1B24" />
    <path
        d="M122.717 112.784C124.58 112.601 125.88 110.311 125.62 107.668C125.361 105.025 123.641 103.031 121.778 103.214C119.915 103.396 118.616 105.687 118.875 108.33C119.134 110.973 120.855 112.967 122.717 112.784Z"
        fill="#1E1B24" />
    <path
        d="M121.47 108.936C122.033 108.881 122.419 108.117 122.331 107.23C122.244 106.342 121.718 105.667 121.155 105.723C120.592 105.778 120.206 106.542 120.293 107.43C120.381 108.317 120.907 108.992 121.47 108.936Z"
        fill="white" />
    <path
        d="M121.406 109.045C121.123 109.045 120.847 108.889 120.622 108.602C120.388 108.302 120.235 107.889 120.19 107.441C120.098 106.497 120.526 105.68 121.146 105.619C121.764 105.558 122.344 106.276 122.437 107.22C122.481 107.669 122.411 108.103 122.239 108.443C122.06 108.799 121.79 109.011 121.481 109.041C121.456 109.044 121.431 109.045 121.406 109.045ZM120.399 107.42C120.439 107.829 120.577 108.203 120.787 108.473C120.987 108.728 121.227 108.856 121.461 108.832C121.697 108.809 121.907 108.637 122.053 108.348C122.206 108.043 122.269 107.65 122.229 107.24C122.148 106.411 121.669 105.776 121.166 105.827C120.662 105.877 120.318 106.591 120.399 107.42Z"
        fill="#1E1B24" />
    <path
        d="M121.259 175.502C121.904 175.118 122.37 174.449 122.464 173.646C122.624 172.277 121.644 171.038 120.275 170.878C118.929 170.72 117.709 171.664 117.516 172.997L105.976 171.647C106.089 170.31 105.121 169.116 103.78 168.959C102.41 168.799 101.171 169.779 101.011 171.148C100.917 171.951 101.215 172.709 101.754 173.231C101.109 173.615 100.644 174.283 100.55 175.086C100.39 176.455 101.37 177.695 102.738 177.855C104.08 178.012 105.297 177.074 105.496 175.747L117.037 177.097C116.93 178.429 117.896 179.617 119.234 179.773C120.603 179.933 121.843 178.953 122.003 177.585C122.097 176.782 121.798 176.024 121.259 175.502Z"
        fill="white" />
    <path
        d="M119.526 180.317C119.409 180.317 119.292 180.31 119.173 180.297C117.723 180.127 116.636 178.972 116.514 177.567L105.899 176.325C105.46 177.671 104.132 178.549 102.677 178.378C101.875 178.284 101.158 177.884 100.658 177.251C100.157 176.618 99.9332 175.827 100.027 175.026C100.113 174.289 100.456 173.628 100.992 173.143C100.583 172.546 100.401 171.824 100.487 171.088C100.581 170.286 100.982 169.569 101.615 169.068C102.248 168.567 103.039 168.343 103.84 168.437C105.297 168.607 106.385 169.768 106.501 171.179L117.111 172.42C117.545 171.066 118.873 170.184 120.336 170.355C121.991 170.548 123.18 172.052 122.986 173.708C122.9 174.444 122.556 175.105 122.02 175.591C122.43 176.187 122.611 176.91 122.525 177.646C122.346 179.182 121.037 180.317 119.526 180.317ZM105.495 175.221C105.516 175.221 105.536 175.222 105.557 175.225L117.098 176.575C117.379 176.608 117.584 176.857 117.561 177.14C117.477 178.2 118.238 179.127 119.295 179.251C120.373 179.376 121.354 178.602 121.48 177.524C121.552 176.91 121.338 176.311 120.893 175.88C120.775 175.766 120.717 175.604 120.737 175.441C120.756 175.278 120.849 175.133 120.99 175.05C121.523 174.733 121.869 174.199 121.941 173.586C122.067 172.507 121.292 171.527 120.213 171.401C119.146 171.277 118.191 172.011 118.037 173.073C117.995 173.356 117.737 173.555 117.455 173.52L105.914 172.17C105.632 172.137 105.427 171.886 105.451 171.603C105.541 170.538 104.78 169.606 103.718 169.482C103.196 169.421 102.681 169.567 102.268 169.893C101.855 170.22 101.594 170.687 101.533 171.209C101.462 171.822 101.675 172.422 102.12 172.853C102.238 172.967 102.296 173.13 102.276 173.292C102.257 173.455 102.164 173.6 102.023 173.683C101.49 174 101.144 174.534 101.072 175.148C100.946 176.226 101.721 177.206 102.8 177.333C103.862 177.457 104.817 176.726 104.975 175.67C105.014 175.409 105.238 175.221 105.495 175.221Z"
        fill="#1E1B24" />
    <defs>
        <filter id="filter0_f_1_7001" x="0.20459" y="0.520996" width="222.19" height="222.19"
            filterUnits="userSpaceOnUse" color-interpolation-filters="sRGB">
            <feFlood flood-opacity="0" result="BackgroundImageFix" />
            <feBlend mode="normal" in="SourceGraphic" in2="BackgroundImageFix" result="shape" />
            <feGaussianBlur stdDeviation="32" result="effect1_foregroundBlur_1_7001" />
        </filter>
    </defs>
</svg>
    