<svg width="21" height="16" viewBox="0 0 21 16" fill="none" xmlns="http://www.w3.org/2000/svg">
    <path
        d="M17.6478 1.61956C16.3473 1.03307 14.9534 0.599587 13.4957 0.353094C13.4827 0.350601 13.4692 0.352207 13.4572 0.35769C13.4452 0.363172 13.4352 0.372259 13.4285 0.383693C13.25 0.697334 13.0511 1.10617 12.9117 1.42916C11.3657 1.19817 9.79394 1.19817 8.24791 1.42916C8.09265 1.07121 7.91757 0.722174 7.72348 0.383693C7.7169 0.372118 7.70695 0.362826 7.69495 0.357055C7.68295 0.351283 7.66948 0.349309 7.65633 0.351393C6.19947 0.597887 4.80551 1.03138 3.50419 1.61871C3.493 1.6234 3.48351 1.63141 3.47699 1.64166C0.831864 5.5303 0.106834 9.3229 0.462974 13.0679C0.463965 13.0771 0.466812 13.0859 0.471342 13.094C0.475872 13.102 0.48199 13.109 0.489323 13.1146C2.03322 14.2387 3.75522 15.0949 5.58324 15.6476C5.59598 15.6515 5.60961 15.6515 5.62234 15.6475C5.63508 15.6436 5.64633 15.6359 5.65463 15.6255C6.04732 15.0985 6.39751 14.5418 6.6967 13.957C6.71455 13.923 6.69756 13.8822 6.66186 13.8686C6.11277 13.6618 5.58076 13.4123 5.0707 13.1223C5.06153 13.1171 5.05381 13.1096 5.04822 13.1007C5.04263 13.0917 5.03936 13.0815 5.03868 13.071C5.03801 13.0605 5.03996 13.0499 5.04436 13.0403C5.04876 13.0308 5.05548 13.0224 5.0639 13.016C5.171 12.937 5.27809 12.8546 5.38009 12.7721C5.38927 12.7647 5.40033 12.76 5.41204 12.7585C5.42374 12.757 5.43563 12.7587 5.44639 12.7636C8.78425 14.263 12.3992 14.263 15.698 12.7636C15.7087 12.7585 15.7208 12.7564 15.7326 12.7578C15.7445 12.7592 15.7558 12.7638 15.7651 12.7713C15.8671 12.8546 15.9734 12.937 16.0813 13.016C16.0898 13.0223 16.0966 13.0305 16.1012 13.04C16.1057 13.0495 16.1078 13.06 16.1073 13.0705C16.1068 13.0811 16.1037 13.0913 16.0983 13.1003C16.0928 13.1094 16.0853 13.1169 16.0762 13.1223C15.5679 13.4147 15.0392 13.662 14.4842 13.8677C14.4757 13.8708 14.4679 13.8757 14.4614 13.882C14.4549 13.8884 14.4499 13.896 14.4466 13.9045C14.4433 13.9129 14.4418 13.922 14.4423 13.931C14.4428 13.9401 14.4452 13.9489 14.4493 13.957C14.7553 14.5409 15.1055 15.0968 15.4906 15.6246C15.4986 15.6355 15.5097 15.6436 15.5225 15.6478C15.5353 15.6521 15.5491 15.6523 15.562 15.6484C17.3931 15.0973 19.1179 14.2407 20.6635 13.1146C20.6711 13.1094 20.6774 13.1026 20.6821 13.0946C20.6868 13.0867 20.6897 13.0779 20.6907 13.0687C21.1157 8.73896 19.9784 4.97697 17.6742 1.64336C17.6685 1.63252 17.6592 1.62408 17.6478 1.61956ZM7.19564 10.7874C6.19097 10.7874 5.36224 9.87878 5.36224 8.76446C5.36224 7.64929 6.17482 6.74152 7.19564 6.74152C8.22411 6.74152 9.04519 7.65694 9.02904 8.76446C9.02904 9.87963 8.21646 10.7874 7.19564 10.7874ZM13.9742 10.7874C12.9687 10.7874 12.1408 9.87878 12.1408 8.76446C12.1408 7.64929 12.9525 6.74152 13.9742 6.74152C15.0027 6.74152 15.8238 7.65694 15.8076 8.76446C15.8076 9.87963 15.0035 10.7874 13.9742 10.7874Z"
        fill="#9D360C" />
</svg>
    