<svg width="20" height="20" viewBox="0 0 20 20" fill="none" xmlns="http://www.w3.org/2000/svg">
    <g clip-path="url(#clip0_1_6927)">
        <path
            d="M19.4232 4.38801C18.7598 4.68198 18.0472 4.8806 17.298 4.97038C18.071 4.50782 18.6494 3.77979 18.9251 2.92216C18.1988 3.35356 17.4039 3.65723 16.575 3.81994C16.0175 3.22476 15.2792 2.83025 14.4746 2.69769C13.6699 2.56513 12.8441 2.70192 12.1251 3.08682C11.4062 3.47173 10.8345 4.08321 10.4987 4.82634C10.163 5.56947 10.0819 6.40267 10.2682 7.19657C8.79654 7.12268 7.35686 6.74017 6.04259 6.07387C4.72833 5.40756 3.56885 4.47236 2.63941 3.32894C2.32161 3.87715 2.13887 4.51275 2.13887 5.18966C2.13852 5.79904 2.28858 6.39909 2.57575 6.93656C2.86292 7.47403 3.27831 7.93231 3.78508 8.27074C3.19737 8.25204 2.62262 8.09323 2.10868 7.80754V7.85521C2.10862 8.70989 2.40426 9.53827 2.94544 10.1998C3.48661 10.8613 4.23999 11.3152 5.07773 11.4845C4.53253 11.632 3.96093 11.6538 3.4061 11.5481C3.64246 12.2835 4.10287 12.9265 4.72288 13.3873C5.34289 13.848 6.09145 14.1033 6.86377 14.1175C5.55271 15.1467 3.93356 15.705 2.26679 15.7025C1.97153 15.7026 1.67653 15.6853 1.3833 15.6509C3.07517 16.7387 5.04463 17.316 7.05604 17.3137C13.8649 17.3137 17.5871 11.6744 17.5871 6.78343C17.5871 6.62453 17.5832 6.46404 17.576 6.30514C18.3 5.78155 18.925 5.13317 19.4217 4.3904L19.4232 4.38801Z"
            fill="#9D360C" />
    </g>
    <defs>
        <clipPath id="clip0_1_6927">
            <rect width="19.068" height="19.068" fill="white"
                transform="translate(0.638184 0.46582)" />
        </clipPath>
    </defs>
</svg>
    