<svg width="18" height="20" viewBox="0 0 18 20" fill="none" xmlns="http://www.w3.org/2000/svg">
    <g clip-path="url(#clip0_1_6936)">
        <path
            d="M17.8102 6.37364C17.8004 5.63031 17.6612 4.89438 17.399 4.19876C17.1717 3.61201 16.8244 3.07913 16.3795 2.63417C15.9345 2.18922 15.4016 1.84197 14.8149 1.61462C14.1282 1.35685 13.4028 1.21747 12.6695 1.20242C11.7253 1.16021 11.426 1.14844 9.02928 1.14844C6.6326 1.14844 6.32541 1.14844 5.38813 1.20242C4.65515 1.21758 3.93005 1.35696 3.24368 1.61462C2.65684 1.84182 2.12388 2.18901 1.6789 2.63398C1.23393 3.07896 0.886738 3.61192 0.659544 4.19876C0.401259 4.88492 0.262181 5.61018 0.24832 6.34321C0.206118 7.28834 0.193359 7.58768 0.193359 9.98436C0.193359 12.381 0.193359 12.6873 0.24832 13.6255C0.263042 14.3596 0.401425 15.0839 0.659544 15.7719C0.887119 16.3586 1.23457 16.8913 1.67969 17.3361C2.12481 17.7809 2.65782 18.128 3.24466 18.3551C3.92915 18.6232 4.65438 18.7726 5.38912 18.7967C6.33424 18.8389 6.63358 18.8517 9.03027 18.8517C11.4269 18.8517 11.7341 18.8517 12.6714 18.7967C13.4047 18.7823 14.1302 18.6432 14.8168 18.3855C15.4035 18.1579 15.9362 17.8106 16.3811 17.3656C16.826 16.9207 17.1734 16.388 17.401 15.8014C17.6591 15.1144 17.7975 14.3901 17.8122 13.655C17.8544 12.7108 17.8672 12.4115 17.8672 10.0138C17.8652 7.61712 17.8652 7.31288 17.8102 6.37364ZM9.0234 14.5167C6.51679 14.5167 4.48619 12.4861 4.48619 9.97946C4.48619 7.47285 6.51679 5.44225 9.0234 5.44225C10.2267 5.44225 11.3808 5.92027 12.2317 6.77117C13.0826 7.62206 13.5606 8.77611 13.5606 9.97946C13.5606 11.1828 13.0826 12.3369 12.2317 13.1877C11.3808 14.0386 10.2267 14.5167 9.0234 14.5167ZM13.7412 6.33242C13.6022 6.33254 13.4646 6.30527 13.3362 6.25214C13.2077 6.19902 13.0911 6.12109 12.9928 6.02282C12.8945 5.92455 12.8166 5.80787 12.7635 5.67945C12.7103 5.55103 12.6831 5.4134 12.6832 5.27442C12.6832 5.13555 12.7105 4.99803 12.7637 4.86973C12.8168 4.74143 12.8947 4.62485 12.9929 4.52665C13.0911 4.42845 13.2077 4.35056 13.336 4.29741C13.4643 4.24427 13.6018 4.21692 13.7407 4.21692C13.8796 4.21692 14.0171 4.24427 14.1454 4.29741C14.2737 4.35056 14.3903 4.42845 14.4885 4.52665C14.5867 4.62485 14.6646 4.74143 14.7177 4.86973C14.7709 4.99803 14.7982 5.13555 14.7982 5.27442C14.7982 5.85936 14.3251 6.33242 13.7412 6.33242Z"
            fill="#9D360C" />
        <path
            d="M9.02344 12.9268C10.6512 12.9268 11.9707 11.6072 11.9707 9.9795C11.9707 8.35177 10.6512 7.03223 9.02344 7.03223C7.39571 7.03223 6.07617 8.35177 6.07617 9.9795C6.07617 11.6072 7.39571 12.9268 9.02344 12.9268Z"
            fill="#9D360C" />
    </g>
    <defs>
        <clipPath id="clip0_1_6936">
            <rect width="17.9464" height="19.068" fill="white"
                transform="translate(0.0117188 0.46582)" />
        </clipPath>
    </defs>
</svg>
    