<svg width="18" height="16" viewBox="0 0 18 16" fill="none" xmlns="http://www.w3.org/2000/svg">
    <path
        d="M6.02573 11.0229C8.70224 7.25468 6.90616 3.23112 5.67355 1.69037L8.05072 2.04254V0.897983C8.57897 -0.0881001 9.1677 0.487115 9.39603 0.897983V2.65884C15.0857 6.251 12.6495 9.73163 10.7201 11.0229H9.39603V12.6957H11.0038C11.6281 12.6957 12.6408 11.7566 13.0692 11.2871L17.1632 10.2305V11.2871C16.4236 11.2166 15.6811 12.0208 15.4023 12.4316C13.9584 15.1081 12.805 15.6892 12.4088 15.6452H4.1328C0.787167 14.7648 0.244236 12.1968 0.390975 11.0229H4.44095C4.30008 12.9951 6.78877 12.9599 8.05072 12.6957V11.0229H6.02573Z"
        fill="#9D360C" />
    <path
        d="M5.02587 9.26267C6.89281 7.70178 5.80376 4.68458 5.02587 3.37109L1.31494 9.26267H5.02587Z"
        fill="#9D360C" />
</svg>
    